<svg width="260" height="388" viewBox="0 0 260 388" fill="none" xmlns="http://www.w3.org/2000/svg">
<g filter="url(#filter0_d)">
<rect x="10.9941" width="245.006" height="379.118" rx="16" fill="#E8BA61"/>
</g>
<path d="M115.316 339.808H113.49V343.526H111.4V339.808H105.174V338.312L110.916 329.512H113.49V338.07H115.316V339.808ZM111.4 338.07V334.506C111.4 333.904 111.437 332.966 111.51 331.69H111.422C111.364 331.792 111.122 332.24 110.696 333.032C110.638 333.12 110.572 333.23 110.498 333.362C110.44 333.479 110.366 333.618 110.278 333.78L107.418 338.07H111.4ZM121.033 329.248C121.972 329.248 122.815 329.504 123.563 330.018C124.326 330.516 124.92 331.279 125.345 332.306C125.785 333.318 126.005 334.564 126.005 336.046C126.005 337.806 125.756 339.265 125.257 340.424C124.773 341.582 124.121 342.433 123.299 342.976C122.478 343.518 121.569 343.79 120.571 343.79C119.149 343.79 117.953 343.276 116.985 342.25L118.195 340.886C118.474 341.208 118.811 341.472 119.207 341.678C119.618 341.868 120.036 341.964 120.461 341.964C121.473 341.964 122.295 341.531 122.925 340.666C123.556 339.786 123.893 338.378 123.937 336.442C123.527 336.97 123.035 337.388 122.463 337.696C121.891 337.989 121.334 338.136 120.791 338.136C119.545 338.136 118.555 337.769 117.821 337.036C117.103 336.288 116.743 335.21 116.743 333.802C116.743 332.907 116.934 332.115 117.315 331.426C117.711 330.736 118.232 330.201 118.877 329.82C119.537 329.438 120.256 329.248 121.033 329.248ZM121.187 336.508C121.642 336.508 122.104 336.368 122.573 336.09C123.043 335.796 123.475 335.356 123.871 334.77C123.754 333.508 123.453 332.562 122.969 331.932C122.485 331.286 121.847 330.964 121.055 330.964C120.41 330.964 119.875 331.22 119.449 331.734C119.024 332.247 118.811 332.936 118.811 333.802C118.811 334.667 119.017 335.334 119.427 335.804C119.838 336.273 120.425 336.508 121.187 336.508ZM129.016 343.526V341.172H127.256V339.038H129.016V337.322H127.256V334.594H129.016V327.818H134.032C136.056 327.818 137.53 328.228 138.454 329.05C139.393 329.871 139.862 331 139.862 332.438C139.862 333.288 139.672 334.088 139.29 334.836C138.909 335.584 138.271 336.185 137.376 336.64C136.496 337.094 135.294 337.322 133.768 337.322H132.338V339.038H135.726V341.172H132.338V343.526H129.016ZM133.438 334.594C134.377 334.594 135.118 334.432 135.66 334.11C136.218 333.787 136.496 333.266 136.496 332.548C136.496 331.213 135.616 330.546 133.856 330.546H132.338V334.594H133.438Z" fill="#553D2B"/>
<path d="M10.9941 322.169H256V368C256 376.836 248.837 384 240 384H26.9941C18.1576 384 10.9941 376.836 10.9941 368V322.169Z" fill="#F4A261"/>
<path d="M256 61.8306L10.9939 61.8305L10.9939 16.0001C10.9939 7.16353 18.1573 8.14551e-05 26.9939 8.22554e-05L240 0.000101548C248.837 0.000102348 256 7.16355 256 16.0001L256 61.8306Z" fill="#F4A261"/>
<defs>
<filter id="filter0_d" x="6.99414" y="0" width="253.006" height="387.118" filterUnits="userSpaceOnUse" color-interpolation-filters="sRGB">
<feFlood flood-opacity="0" result="BackgroundImageFix"/>
<feColorMatrix in="SourceAlpha" type="matrix" values="0 0 0 0 0 0 0 0 0 0 0 0 0 0 0 0 0 0 127 0" result="hardAlpha"/>
<feOffset dy="4"/>
<feGaussianBlur stdDeviation="2"/>
<feComposite in2="hardAlpha" operator="out"/>
<feColorMatrix type="matrix" values="0 0 0 0 0 0 0 0 0 0 0 0 0 0 0 0 0 0 0.25 0"/>
<feBlend mode="normal" in2="BackgroundImageFix" result="effect1_dropShadow"/>
<feBlend mode="normal" in="SourceGraphic" in2="effect1_dropShadow" result="shape"/>
</filter>
</defs>
</svg>
