<svg id="Слой_1" data-name="Слой 1" xmlns="http://www.w3.org/2000/svg" xmlns:xlink="http://www.w3.org/1999/xlink" viewBox="0 0 512 512">
  <defs>
    <style>
      .cls-1 {
        fill: none;
      }

      .cls-2 {
        clip-path: url(#clip-path);
      }

      .cls-3 {
        fill: #010202;
      }

      .cls-4 {
        fill: #705038;
      }

      .cls-5 {
        fill: #f7d18a;
      }

      .cls-6 {
        fill: #e8bb62;
      }

      .cls-7 {
        clip-path: url(#clip-path-2);
      }

      .cls-8 {
        clip-path: url(#clip-path-3);
      }

      .cls-9 {
        clip-path: url(#clip-path-4);
      }

      .cls-10 {
        clip-path: url(#clip-path-5);
      }

      .cls-11 {
        clip-path: url(#clip-path-6);
      }
    </style>
    <clipPath id="clip-path">
      <rect class="cls-1" x="195.91" y="5.63" width="161.76" height="349.25"/>
    </clipPath>
    <clipPath id="clip-path-2">
      <rect class="cls-1" x="146.59" y="26.25" width="260.42" height="384.96"/>
    </clipPath>
    <clipPath id="clip-path-3">
      <rect class="cls-1" x="53.6" y="123.68" width="133.95" height="289.24"/>
    </clipPath>
    <clipPath id="clip-path-4">
      <rect class="cls-1" x="12.74" y="140.76" width="215.66" height="318.78"/>
    </clipPath>
    <clipPath id="clip-path-5">
      <rect class="cls-1" x="341.59" y="203.41" width="120.82" height="260.9"/>
    </clipPath>
    <clipPath id="clip-path-6">
      <rect class="cls-1" x="304.74" y="218.8" width="194.52" height="287.57"/>
    </clipPath>
  </defs>
  <title>coins_bag_icon</title>
  <g>
    <g>
      <g class="cls-2">
        <g>
          <path class="cls-3" d="M287.91,354.82c0,.08.06.16,0,0Z"/>
          <path class="cls-4" d="M348,197.56c-5.09-14.07-11.06-27.36-15.94-41.64-4.52-13.21-13.11-25-13.07-40.34,9.41-11.66,8.39-24.86-4.48-31.85.73-2.17,1.25-4,1.85-5.75,6.31-18.41,12.7-36.84,19-55.25,1.59-4.58,1.55-8.94-1.8-12.52s-7.1-3.28-10.9-1.09a21.6,21.6,0,0,0-2.47,1.55c-9.67,8-19,7.46-29,.16a24.18,24.18,0,0,0-14.29-5.2h-.08a24.66,24.66,0,0,0-14.45,5.12c-10,7.38-19.37,7.86-29-.16A17.86,17.86,0,0,0,230.78,9c-3.8-2.17-7.5-2.49-10.89,1.09s-3.4,7.94-1.81,12.52q9.55,27.62,19.07,55.25c.62,1.79,1.18,3.58,1.85,5.75-12.86,7.07-13.83,20.27-4.48,31.85.1,15.29-8.55,27.11-13.07,40.34-4.82,14.28-10.85,27.59-15.93,41.64-25.75,71.24,2.47,154.08,53,155.93,6,.22,12.08.95,18.09.95h.1c3,0,6.07-.22,9-.39s6.07-.46,9.05-.54C345.49,351.7,373.71,268.8,348,197.56ZM235.8,47.67c-3.33-9.71-6.69-19.43-10.49-30.61,2.84,1.71,4.48,2.5,6,3.58,10.89,7.62,21.85,7.94,32.64.08,4.32-3.19,8.58-4.66,12.86-4.66s8.54,1.55,12.86,4.66c10.86,7.86,21.81,7.54,32.64-.08,1.49-1.08,3.14-1.87,6-3.58-3.86,11.2-7.13,20.9-10.49,30.61-3.6,10.41-7.36,20.74-10.69,31.23-1.13,3.58-2.57,5-5.61,5.29-5.18-.22-15-.3-24.62-.3h-.1c-4.78,0-9.67,0-13.93.08l-10.69.22c-3-.3-4.52-1.79-5.61-5.29C243.16,68.41,239.4,58.08,235.8,47.67Zm-.06,51.43c0-3.28,1.75-5.83,3.86-5.83H314c2.11,0,3.86,2.55,3.86,5.83v.22c0,3.2-1.75,5.83-3.86,5.83H239.6c-2.11,0-3.86-2.63-3.86-5.83Zm63.79,239.64a168,168,0,0,1-45.54,0c-41.12-5.53-62.4-73.82-41.74-132.7,6.63-18.95,13.52-37.76,21.54-55.25,4.89-10.71,8.74-20.6,14.59-31.09a5.2,5.2,0,0,1,4.26-3h48.28c1.65,0,3.19,1.08,4.26,3,5.81,10.49,9.66,20.36,14.59,31.09,8,17.41,14.85,36.28,21.48,55.25C361.93,264.92,340.65,333.29,299.53,338.74Z"/>
          <path class="cls-5" d="M328.27,17.12c-3.86,11.2-7.13,20.9-10.49,30.61-3.6,10.41-7.36,20.74-10.69,31.23-1.13,3.58-2.58,5-5.61,5.29-5.18-.22-15-.3-24.62-.3h-.1c-4.78,0-9.67,0-13.93.08l-10.69.22c-3-.3-4.52-1.79-5.61-5.29-3.33-10.49-7.09-20.82-10.69-31.23-3.33-9.71-6.69-19.43-10.49-30.61,2.84,1.71,4.48,2.5,6,3.58,10.89,7.62,21.85,7.94,32.64.08,4.32-3.19,8.58-4.66,12.86-4.66s8.54,1.55,12.86,4.66c10.86,7.86,21.81,7.54,32.64-.08A68.22,68.22,0,0,1,328.27,17.12Z"/>
          <path class="cls-5" d="M317.84,99.1v.22c0,3.2-1.75,5.83-3.86,5.83H239.6c-2.11,0-3.86-2.63-3.86-5.83V99.1c0-3.28,1.75-5.83,3.86-5.83H314C316.13,93.27,317.84,95.93,317.84,99.1Z"/>
          <path class="cls-5" d="M299.53,338.74a168,168,0,0,1-45.54,0c-41.12-5.53-62.4-73.82-41.74-132.7,6.63-18.95,13.52-37.76,21.54-55.25,4.89-10.71,8.74-20.6,14.59-31.09a5.2,5.2,0,0,1,4.26-3h48.28c1.65,0,3.19,1.08,4.26,3,5.81,10.49,9.66,20.36,14.59,31.09,8,17.41,14.85,36.28,21.48,55.25C361.93,264.92,340.65,333.29,299.53,338.74Z"/>
          <path class="cls-4" d="M277,191.25c-18.75,0-33.92,23-33.92,51.28S258.31,293.8,277,293.8s33.93-23,33.93-51.27S295.79,191.25,277,191.25Z"/>
          <path class="cls-6" d="M278,225.53c3.39,0,6.47,2.33,8.48,5.91l3.86-5c-3-5.29-7.4-8.62-12.34-8.62-7.4,0-13.67,7.53-15.58,17.78H259.3v4.66h2.51c0,.71,0,1.39,0,2.11s0,1.33,0,2H259.3V249h3C264.24,259.36,270.51,267,278,267c4.92,0,9.3-3.33,12.28-8.54l-3.86-4.88c-2.05,3.58-5.09,5.83-8.42,5.83-4.63,0-8.59-4.28-10.27-10.33h2.87v-4.67h-3.7c0-.62,0-1.24,0-1.95s0-1.38.1-2.11h3.64v-4.66h-2.83C269.4,229.71,273.38,225.53,278,225.53Z"/>
        </g>
      </g>
      <g class="cls-7">
        <g>
          <path class="cls-3" d="M294.71,411.11c0,.08.08.16,0,0Z"/>
          <path class="cls-4" d="M391.36,237.77c-8.2-15.49-17.79-30.14-25.65-45.9-7.27-14.55-21.1-27.57-21-44.44,15.15-12.84,13.48-27.41-7.2-35.11,1.17-2.39,2-4.36,3-6.33q15.28-30.43,30.61-60.89c2.57-5.05,2.47-9.85-2.9-13.79s-11.41-3.6-17.54-1.2a34.25,34.25,0,0,0-4,1.7C331.1,40.64,316.05,40,299.91,32a51.19,51.19,0,0,0-23-5.75h-.16a52.06,52.06,0,0,0-23.25,5.65c-16.14,8.13-31.19,8.64-46.75-.19a31.12,31.12,0,0,0-4-1.7c-6.13-2.4-12.08-2.76-17.54,1.2S179.75,40,182.32,45c10.27,20.3,20.44,40.6,30.71,60.89,1,2,1.91,3.94,3,6.33-20.68,7.8-22.25,22.35-7.2,35.11.16,16.89-13.72,29.89-21,44.44-7.78,15.76-17.46,30.41-25.64,45.9-41.47,78.54,4,169.82,85.31,171.87,9.69.26,19.43,1,29.12,1h.16c4.88,0,9.77-.26,14.57-.42s9.77-.53,14.57-.61C387.38,407.67,432.82,316.31,391.36,237.77ZM210.8,72.57c-5.36-10.71-10.75-21.4-16.88-33.74,4.54,1.89,7.19,2.75,9.69,3.94,17.54,8.38,35.17,8.74,52.55.08a45.23,45.23,0,0,1,20.68-5.15,46.26,46.26,0,0,1,20.68,5.15c17.47,8.64,35.09,8.3,52.56-.08,2.41-1.21,5-2.05,9.68-3.94-6.21,12.34-11.49,23-16.88,33.74C337.09,84.05,331,95.44,325.66,107c-1.83,3.94-4.14,5.49-9,5.83-8.36-.26-24.15-.34-39.63-.34h-.16c-7.7,0-15.55,0-22.43.08s-13,.18-17.22.26c-4.88-.34-7.28-2-9-5.83C222.64,95.44,216.59,84.05,210.8,72.57Zm-.08,56.7a6.31,6.31,0,0,1,6.21-6.43H336.75a6.3,6.3,0,0,1,6.21,6.43v.26a6.37,6.37,0,0,1-6.21,6.43H216.93a6.37,6.37,0,0,1-6.21-6.43ZM313.4,393.39c-12.16,1.1-24.42,1.7-36.66,1.7s-24.5-.6-36.66-1.7C173.88,387.3,139.64,312,172.9,247.12c10.67-20.9,21.76-41.62,34.67-60.9,7.85-11.81,14.06-22.69,23.49-34.24a9,9,0,0,1,6.87-3.34h77.7A8.86,8.86,0,0,1,322.5,152c9.35,11.55,15.56,22.45,23.5,34.24,12.82,19.18,23.91,40,34.58,60.9C413.86,312,379.6,387.38,313.4,393.39Z"/>
          <path class="cls-5" d="M359.66,38.91c-6.21,12.34-11.49,23-16.88,33.74-5.79,11.48-11.84,22.87-17.22,34.43-1.83,3.94-4.14,5.49-9,5.83-8.36-.26-24.15-.34-39.63-.34h-.16c-7.7,0-15.55,0-22.43.08s-13,.18-17.22.26c-4.89-.34-7.28-2-9-5.83-5.38-11.56-11.41-23-17.22-34.43-5.36-10.71-10.75-21.4-16.88-33.74,4.54,1.89,7.19,2.75,9.69,3.94,17.54,8.38,35.17,8.74,52.55.08a45.23,45.23,0,0,1,20.68-5.15,46.26,46.26,0,0,1,20.68,5.15c17.47,8.64,35.09,8.3,52.56-.08C352.47,41.66,355.12,40.72,359.66,38.91Z"/>
          <path class="cls-5" d="M342.86,129.27v.26a6.37,6.37,0,0,1-6.21,6.43H216.91a6.37,6.37,0,0,1-6.21-6.43v-.26a6.31,6.31,0,0,1,6.21-6.43H336.73A6.3,6.3,0,0,1,342.86,129.27Z"/>
          <path class="cls-5" d="M313.4,393.39c-12.16,1.1-24.42,1.7-36.66,1.7s-24.5-.6-36.66-1.7C173.88,387.3,139.64,312,172.9,247.12c10.67-20.9,21.76-41.62,34.67-60.9,7.85-11.81,14.06-22.69,23.49-34.24a9,9,0,0,1,6.87-3.34h77.7A8.86,8.86,0,0,1,322.5,152c9.35,11.55,15.56,22.45,23.5,34.24,12.82,19.18,23.91,40,34.58,60.9C413.86,312,379.6,387.38,313.4,393.39Z"/>
          <path class="cls-4" d="M277.16,231.88c-29.14,0-52.71,23.84-52.71,53.14s23.63,53.14,52.71,53.14,52.72-23.84,52.72-53.14S306.3,231.88,277.16,231.88Z"/>
          <path class="cls-6" d="M290.11,289.76c1.2,4.67,2.31,9,3.35,13.37a1.67,1.67,0,0,1-.64,1.45c-3,1.2-6.07,2.25-9,3.45a2.62,2.62,0,0,0-1.42,1.21c-.65,2-1.91,3.13-3.92,3.13a3.58,3.58,0,0,1-3.76-3.05c-.24-1.05-.64-1.29-1.59-1.53-9-2.17-14.37-8-16.2-17.14a6.38,6.38,0,0,1-.16-1.13c-3.43-.56-4.78-1.85-4.7-4.34.08-2.25,1.59-3.54,4.62-3.78.41-1.52.73-3,1.29-4.58,2.63-7.34,7.74-11.92,15.17-14,.81-.24,1.35-.32,1.59-1.36a3.59,3.59,0,0,1,3.76-3.06c1.91,0,3.11,1,3.92,2.9a2.29,2.29,0,0,0,1.59,1c3.67.48,6.79,2.09,10,4.1-1.34,4.66-2.71,9.35-4.08,14.17-1.84-.89-3.43-1.85-5.18-2.49a17,17,0,0,0-5.27-1.13c-4.16-.08-6.63,2.09-7.11,6.27a21.62,21.62,0,0,0-.08,3.94c.48,5.09,4.24,7.48,9.91,6.13a39.22,39.22,0,0,0,5.74-2.41A15.08,15.08,0,0,1,290.11,289.76Z"/>
        </g>
      </g>
    </g>
    <g>
      <g class="cls-8">
        <g>
          <path class="cls-3" d="M129.79,412.86c0,.06,0,.12,0,0Z"/>
          <path class="cls-4" d="M179.49,282.63c-4.22-11.66-9.14-22.65-13.2-34.49-3.74-10.93-10.86-20.72-10.82-33.4,7.8-9.65,6.94-20.6-3.69-26.39.6-1.81,1-3.27,1.52-4.76q7.84-22.87,15.76-45.74c1.33-3.8,1.27-7.4-1.49-10.37s-5.87-2.72-9-.91a16.35,16.35,0,0,0-2.05,1.29c-8,6.63-15.76,6.17-24.06.14a20.09,20.09,0,0,0-11.84-4.32h-.08a20.36,20.36,0,0,0-12,4.24c-8.3,6.11-16.06,6.49-24.06-.14a15.94,15.94,0,0,0-2.05-1.29c-3.16-1.81-6.21-2.07-9,.91S70.62,134,72,137.77c5.28,15.25,10.51,30.51,15.8,45.74.5,1.49,1,3,1.52,4.76-10.65,5.85-11.45,16.8-3.7,26.39.09,12.68-7.07,22.45-10.81,33.4-4,11.84-9,22.85-13.2,34.49-21.32,59,2,127.6,43.89,129.14,5,.18,10,.79,15,.79h.08c2.52,0,5-.18,7.5-.32s5-.39,7.5-.47C177.46,410.29,200.81,341.63,179.49,282.63ZM86.62,158.51c-2.77-8-5.53-16.08-8.68-25.36,2.35,1.42,3.7,2.07,5,2.95,9,6.31,18.09,6.57,27,.06a17.82,17.82,0,0,1,10.65-3.86,18.22,18.22,0,0,1,10.66,3.86c9,6.49,18,6.25,27-.06,1.22-.9,2.59-1.55,5-2.95-3.19,9.26-5.91,17.3-8.68,25.36-3,8.62-6.09,17.18-8.84,25.86-.95,3-2.13,4.12-4.65,4.38-4.3-.18-12.44-.26-20.39-.26h-.09c-4,0-8,0-11.53.06s-6.69.14-8.84.18c-2.52-.26-3.74-1.48-4.65-4.38C92.71,175.67,89.59,167.13,86.62,158.51Zm0,42.58c0-2.71,1.45-4.82,3.2-4.82h61.63c1.75,0,3.2,2.13,3.2,4.82v.19c0,2.63-1.45,4.82-3.2,4.82H89.76c-1.75,0-3.2-2.19-3.2-4.82v-.19ZM139.4,399.53a138.44,138.44,0,0,1-37.71,0C67.65,395,50,338.4,67.13,289.64,72.61,274,78.32,258.37,85,243.9c4-8.88,7.24-17.06,12.1-25.74a4.28,4.28,0,0,1,3.54-2.52h40a4.25,4.25,0,0,1,3.54,2.52c4.8,8.68,8,16.86,12.1,25.74,6.59,14.41,12.3,30,17.78,45.74C191.07,338.4,173.46,395,139.4,399.53Z"/>
          <path class="cls-5" d="M163.19,133.21c-3.19,9.26-5.91,17.3-8.68,25.36-3,8.62-6.09,17.18-8.84,25.86-.95,3-2.13,4.12-4.65,4.38-4.3-.18-12.44-.26-20.4-.26h-.08c-4,0-8,0-11.53.06s-6.69.14-8.84.18c-2.52-.26-3.74-1.48-4.65-4.38-2.77-8.68-5.87-17.24-8.84-25.86-2.77-8-5.53-16.08-8.68-25.36,2.35,1.42,3.7,2.07,5,2.95,9,6.31,18.09,6.57,27,.06a17.82,17.82,0,0,1,10.65-3.86,18.22,18.22,0,0,1,10.66,3.86c9,6.49,18,6.25,27-.06A50.46,50.46,0,0,1,163.19,133.21Z"/>
          <path class="cls-5" d="M154.55,201.09v.19c0,2.63-1.45,4.82-3.2,4.82H89.76c-1.75,0-3.2-2.19-3.2-4.82v-.19c0-2.71,1.45-4.82,3.2-4.82h61.63C153.14,196.27,154.55,198.46,154.55,201.09Z"/>
          <path class="cls-5" d="M139.4,399.53a138.44,138.44,0,0,1-37.71,0C67.65,395,50,338.4,67.13,289.64,72.61,274,78.32,258.37,85,243.9c4-8.88,7.24-17.06,12.1-25.74a4.28,4.28,0,0,1,3.54-2.52h40a4.25,4.25,0,0,1,3.54,2.52c4.8,8.68,8,16.86,12.1,25.74,6.59,14.41,12.3,30,17.78,45.74C191.09,338.4,173.46,395,139.4,399.53Z"/>
          <path class="cls-4" d="M120.77,277.4c-15.54,0-28.1,19.06-28.1,42.47s12.6,42.46,28.1,42.46,28.09-19.05,28.09-42.46S136.3,277.4,120.77,277.4Z"/>
          <path class="cls-6" d="M121.53,305.78c2.81,0,5.37,1.93,7,4.88l3.2-4.12c-2.47-4.38-6.13-7.13-10.21-7.13-6.13,0-11.32,6.25-12.9,14.73h-2.56V318h2.09c0,.58,0,1.17,0,1.75s0,1.1,0,1.61h-2.09v3.86h2.52c1.56,8.56,6.77,14.87,12.94,14.87,4.08,0,7.7-2.78,10.17-7.08l-3.2-4.06c-1.71,3-4.22,4.83-7,4.83-3.82,0-7.12-3.54-8.5-8.56h2.39v-3.86h-3.08c0-.51,0-1,0-1.61s0-1.17.08-1.75h3v-3.86h-2.35C114.45,309.26,117.73,305.78,121.53,305.78Z"/>
        </g>
      </g>
      <g class="cls-9">
        <g>
          <path class="cls-3" d="M135.4,459.46c0,.09.08.15,0,0Z"/>
          <path class="cls-4" d="M215.44,315.93c-6.79-12.84-14.73-25-21.24-38-6-12.06-17.46-22.83-17.4-36.8,12.54-10.63,11.17-22.69-6-29.08,1-2,1.65-3.62,2.47-5.25q12.66-25.2,25.36-50.42c2.13-4.18,2.05-8.16-2.39-11.42s-9.44-3-14.53-1a25.83,25.83,0,0,0-3.3,1.42c-12.88,7.3-25.36,6.82-38.7.15a42.32,42.32,0,0,0-19.06-4.77h-.12a43.09,43.09,0,0,0-19.25,4.68c-13.36,6.74-25.82,7.16-38.71-.14a30.19,30.19,0,0,0-3.29-1.42c-5.07-2-10-2.27-14.53,1s-4.52,7.24-2.39,11.42c8.5,16.8,16.92,33.62,25.42,50.42.82,1.63,1.57,3.26,2.47,5.25-17.12,6.45-18.43,18.51-6,29.08.14,14-11.37,24.74-17.4,36.8-6.45,13-14.45,25.18-21.25,38-34.32,65,3.3,140.64,70.65,142.35,8,.2,16.09.84,24.11.84h.14c4,0,8.08-.2,12.06-.36s8.08-.42,12.06-.5C212.15,456.63,249.77,381,215.44,315.93ZM65.92,179.13c-4.46-8.87-8.9-17.73-14-27.94,3.78,1.57,6,2.27,8,3.26,14.53,7,29.12,7.23,43.51.08a37.38,37.38,0,0,1,17.12-4.26,38.49,38.49,0,0,1,17.13,4.26c14.45,7.15,29.06,6.87,43.51-.08,2-1,4.18-1.71,8-3.26-5.15,10.21-9.53,19.07-14,27.94-4.8,9.5-9.79,18.93-14.25,28.52-1.51,3.25-3.44,4.54-7.48,4.82-6.91-.2-20-.28-32.81-.28h-.15c-6.37,0-12.88,0-18.57.08s-10.75.14-14.24.2c-4-.28-6-1.63-7.46-4.82C75.71,198.06,70.7,188.61,65.92,179.13Zm-.08,47A5.23,5.23,0,0,1,71,220.75H170.2a5.22,5.22,0,0,1,5.15,5.33v.2a5.27,5.27,0,0,1-5.15,5.32H71a5.27,5.27,0,0,1-5.14-5.32Zm85,218.71c-10.07.93-20.22,1.43-30.35,1.43s-20.27-.5-30.34-1.43c-54.83-5-83.19-67.38-55.65-121.12,8.84-17.31,18-34.47,28.72-50.43,6.51-9.78,11.65-18.79,19.45-28.35a7.4,7.4,0,0,1,5.69-2.78h64.35a7.28,7.28,0,0,1,5.69,2.78c7.74,9.56,12.88,18.59,19.45,28.35,10.63,15.88,19.8,33.12,28.64,50.43C234.07,377.43,205.72,439.83,150.89,444.79Z"/>
          <path class="cls-5" d="M189.2,151.25c-5.15,10.21-9.53,19.08-14,27.94-4.8,9.5-9.79,18.93-14.25,28.52-1.51,3.25-3.44,4.54-7.46,4.82-6.91-.2-20-.28-32.82-.28h-.14c-6.37,0-12.88,0-18.57.08s-10.75.14-14.24.2c-4-.28-6-1.63-7.46-4.82-4.46-9.57-9.45-19-14.25-28.52-4.46-8.86-8.9-17.73-14-27.94,3.78,1.57,6,2.27,8,3.26,14.53,7,29.12,7.23,43.51.08a37.38,37.38,0,0,1,17.12-4.26,38.49,38.49,0,0,1,17.13,4.26c14.45,7.15,29.06,6.87,43.51-.08C183.23,153.52,185.42,152.74,189.2,151.25Z"/>
          <path class="cls-5" d="M175.29,226.08v.2a5.27,5.27,0,0,1-5.15,5.32H71a5.27,5.27,0,0,1-5.14-5.32v-.2A5.23,5.23,0,0,1,71,220.75H170.2A5.22,5.22,0,0,1,175.29,226.08Z"/>
          <path class="cls-5" d="M150.89,444.79c-10.07.93-20.22,1.43-30.35,1.43s-20.27-.5-30.34-1.43c-54.83-5-83.19-67.38-55.65-121.12,8.84-17.31,18-34.47,28.72-50.43,6.51-9.78,11.65-18.79,19.45-28.35a7.4,7.4,0,0,1,5.69-2.78h64.35a7.28,7.28,0,0,1,5.69,2.78c7.74,9.56,12.88,18.59,19.45,28.35,10.63,15.88,19.8,33.12,28.64,50.43C234.07,377.43,205.72,439.83,150.89,444.79Z"/>
          <path class="cls-4" d="M120.87,311.05a44,44,0,1,0,43.65,44A43.83,43.83,0,0,0,120.87,311.05Z"/>
          <path class="cls-6" d="M131.58,359c1,3.86,1.91,7.45,2.77,11.07a1.43,1.43,0,0,1-.52,1.21c-2.45,1-5,1.87-7.48,2.87-.46.2-1.06.6-1.18,1a3.25,3.25,0,0,1-3.24,2.59,3,3,0,0,1-3.11-2.53c-.21-.87-.53-1.07-1.33-1.27-7.48-1.81-11.9-6.67-13.43-14.21a6.08,6.08,0,0,1-.14-.92c-2.83-.46-4-1.53-3.9-3.6.07-1.87,1.33-2.93,3.84-3.14.33-1.26.61-2.53,1.07-3.79a17.65,17.65,0,0,1,12.56-11.6c.66-.2,1.12-.26,1.33-1.15a3,3,0,0,1,3.11-2.53,3.31,3.31,0,0,1,3.24,2.41,1.86,1.86,0,0,0,1.32.87,20.36,20.36,0,0,1,8.26,3.39c-1.12,3.86-2.25,7.74-3.37,11.74-1.53-.74-2.84-1.53-4.3-2.07a14.46,14.46,0,0,0-4.37-.92c-3.43-.06-5.48,1.73-5.88,5.2a16.15,16.15,0,0,0-.06,3.26c.4,4.2,3.49,6.19,8.2,5.06a31.1,31.1,0,0,0,4.76-2A16.63,16.63,0,0,1,131.58,359Z"/>
        </g>
      </g>
    </g>
    <g>
      <g class="cls-10">
        <g>
          <path class="cls-3" d="M410.31,464.25c0,.06,0,.12,0,0Z"/>
          <path class="cls-4" d="M455.16,346.78c-3.79-10.51-8.26-20.44-11.89-31.11-3.38-9.87-9.79-18.69-9.75-30.13,7-8.7,6.27-18.57-3.34-23.79.55-1.63.93-3,1.39-4.3,4.72-13.75,9.49-27.52,14.21-41.26,1.18-3.42,1.14-6.67-1.35-9.35s-5.3-2.43-8.14-.8a13.53,13.53,0,0,0-1.85,1.16c-7.21,6-14.21,5.57-21.7.12a18.06,18.06,0,0,0-10.67-3.89H402a18.28,18.28,0,0,0-10.8,3.83c-7.49,5.51-14.47,5.87-21.7-.12a15,15,0,0,0-1.85-1.16c-2.83-1.63-5.61-1.87-8.14.8s-2.53,5.93-1.35,9.35q7.16,20.61,14.25,41.26c.47,1.32.89,2.67,1.39,4.3-9.61,5.28-10.33,15.15-3.34,23.79.08,11.44-6.37,20.26-9.74,30.13-3.6,10.67-8.1,20.6-11.9,31.11-19.23,53.22,1.85,115.1,39.59,116.48,4.48.18,9,.71,13.53.71H402c2.27,0,4.52-.18,6.75-.28s4.52-.35,6.75-.41C453.32,461.94,474.4,400,455.16,346.78Zm-83.78-112c-2.49-7.26-5-14.51-7.84-22.87,2.11,1.28,3.34,1.87,4.48,2.67,8.14,5.69,16.32,5.93,24.38.06A16.08,16.08,0,0,1,402,211.2a16.45,16.45,0,0,1,9.6,3.48c8.1,5.87,16.28,5.63,24.38-.06,1.11-.8,2.33-1.39,4.48-2.67-2.87,8.36-5.34,15.61-7.83,22.87-2.7,7.78-5.49,15.49-8,23.33-.85,2.67-1.91,3.72-4.18,3.94-3.88-.18-11.22-.22-18.39-.22H402c-3.58,0-7.22,0-10.41.06s-6,.12-8,.18c-2.27-.22-3.38-1.33-4.18-3.94C376.87,250.31,374.07,242.6,371.38,234.82Zm0,38.42c0-2.43,1.3-4.36,2.87-4.36H429.8c1.57,0,2.88,1.91,2.88,4.36v.18c0,2.38-1.31,4.37-2.88,4.37H374.21c-1.57,0-2.87-2-2.87-4.37Zm47.65,179a131.12,131.12,0,0,1-17,1.17,127.26,127.26,0,0,1-17-1.17c-30.7-4.12-46.62-55.15-31.17-99.14,4.95-14.17,10.11-28.2,16.08-41.26,3.66-8,6.53-15.37,10.91-23.21a3.91,3.91,0,0,1,3.2-2.27h36.05a3.81,3.81,0,0,1,3.2,2.27c4.34,7.84,7.21,15.21,10.91,23.21,5.95,13,11.1,27.11,16.06,41.26C465.59,397.1,449.72,448.17,419,452.23Z"/>
          <path class="cls-5" d="M440.45,212c-2.87,8.36-5.34,15.61-7.84,22.87-2.69,7.78-5.48,15.49-8,23.33-.85,2.67-1.91,3.72-4.18,3.94-3.88-.18-11.22-.22-18.39-.22H402c-3.58,0-7.22,0-10.41.06s-6,.12-8,.18c-2.27-.22-3.38-1.33-4.18-3.94-2.49-7.84-5.31-15.55-8-23.33-2.49-7.26-5-14.51-7.84-22.87,2.11,1.28,3.34,1.87,4.48,2.67,8.14,5.69,16.32,5.93,24.38.06a16.08,16.08,0,0,1,9.61-3.48,16.45,16.45,0,0,1,9.6,3.48c8.1,5.87,16.28,5.63,24.38-.06A36.8,36.8,0,0,1,440.45,212Z"/>
          <path class="cls-5" d="M432.66,273.24v.18c0,2.38-1.31,4.37-2.88,4.37H374.21c-1.57,0-2.87-2-2.87-4.37v-.18c0-2.43,1.3-4.36,2.87-4.36H429.8C431.39,268.88,432.66,270.85,432.66,273.24Z"/>
          <path class="cls-5" d="M419,452.23a131.12,131.12,0,0,1-17,1.17,127.26,127.26,0,0,1-17-1.17c-30.7-4.12-46.62-55.15-31.17-99.14,4.95-14.17,10.11-28.2,16.08-41.26,3.66-8,6.53-15.37,10.91-23.21a3.91,3.91,0,0,1,3.2-2.27h36.05a3.81,3.81,0,0,1,3.2,2.27c4.34,7.84,7.21,15.21,10.91,23.21,5.95,13,11.1,27.11,16.06,41.26C465.61,397.1,449.72,448.17,419,452.23Z"/>
          <path class="cls-4" d="M402.17,342.08c-14,0-25.35,17.18-25.35,38.3s11.38,38.31,25.35,38.31,25.34-17.19,25.34-38.31S416.2,342.08,402.17,342.08Z"/>
          <path class="cls-6" d="M402.87,367.68c2.53,0,4.84,1.75,6.33,4.42l2.88-3.72c-2.24-3.94-5.53-6.45-9.23-6.45-5.53,0-10.21,5.63-11.64,13.29H388.9v3.47h1.89c0,.53,0,1.05,0,1.57s0,1,0,1.45H388.9v3.48h2.27c1.43,7.71,6.11,13.4,11.68,13.4,3.68,0,6.95-2.49,9.19-6.39l-2.88-3.66c-1.53,2.67-3.8,4.36-6.29,4.36-3.46,0-6.41-3.19-7.68-7.71h2.15v-3.48h-2.77c0-.46,0-.93,0-1.45s0-1,.08-1.57h2.73v-3.47h-2.11C396.48,370.82,399.45,367.68,402.87,367.68Z"/>
        </g>
      </g>
      <g class="cls-11">
        <g>
          <path class="cls-3" d="M415.39,506.31c0,.06.06.12,0,0Z"/>
          <path class="cls-4" d="M487.58,376.82c-6.11-11.57-13.28-22.52-19.15-34.28-5.45-10.87-15.76-20.6-15.7-33.2,11.32-9.59,10.07-20.48-5.38-26.23.86-1.79,1.48-3.25,2.23-4.72,7.59-15.18,15.27-30.33,22.87-45.48,1.91-3.78,1.85-7.36-2.17-10.31s-8.52-2.69-13.11-.91a25.88,25.88,0,0,0-3,1.29c-11.62,6.59-22.87,6.15-34.93.12a38,38,0,0,0-17.18-4.28H402A38.88,38.88,0,0,0,384.6,223c-12.06,6.07-23.29,6.47-34.93-.12a26.35,26.35,0,0,0-3-1.29c-4.58-1.79-9-2-13.1.91s-4.08,6.53-2.17,10.31q11.47,22.76,22.93,45.48c.74,1.47,1.42,2.93,2.23,4.72-15.46,5.83-16.62,16.7-5.39,26.23.12,12.6-10.25,22.33-15.7,33.2-5.8,11.78-13,22.71-19.15,34.28-31,58.67,3,126.86,63.73,128.41,7.24.18,14.53.76,21.77.76H402c3.65,0,7.29-.18,10.87-.32s7.29-.38,10.87-.44C484.61,503.74,518.55,435.49,487.58,376.82ZM352.71,253.41c-4-8-8-16-12.6-25.2,3.39,1.4,5.38,2,7.23,2.93,13.11,6.27,26.27,6.53,39.25.06a33.77,33.77,0,0,1,15.46-3.84,34.83,34.83,0,0,1,15.45,3.84c13,6.47,26.21,6.21,39.25-.06,1.79-.9,3.78-1.53,7.24-2.93-4.65,9.2-8.6,17.2-12.6,25.2-4.33,8.56-8.85,17.08-12.87,25.72-1.36,2.94-3.09,4.1-6.73,4.34-6.25-.18-18.05-.26-29.6-.26h-.12c-5.75,0-11.62,0-16.74.06s-9.71.12-12.87.18c-3.65-.26-5.44-1.46-6.73-4.34C361.55,270.49,357,262,352.71,253.41Zm-.06,42.36a4.72,4.72,0,0,1,4.64-4.8H446.8a4.72,4.72,0,0,1,4.65,4.8V296a4.76,4.76,0,0,1-4.65,4.81H357.29a4.76,4.76,0,0,1-4.64-4.81Zm76.71,197.3c-9.08.82-18.23,1.28-27.39,1.28s-18.29-.44-27.4-1.28c-49.46-4.54-75-60.78-50.2-109.27,8-15.62,16.26-31.09,25.91-45.48,5.86-8.82,10.51-17,17.56-25.59a6.76,6.76,0,0,1,5.13-2.49h58a6.59,6.59,0,0,1,5.12,2.49c7,8.65,11.62,16.77,17.57,25.59,9.58,14.33,17.86,29.88,25.84,45.48C504.38,432.29,478.8,488.59,429.36,493.07Z"/>
          <path class="cls-5" d="M463.91,228.27c-4.65,9.2-8.61,17.2-12.6,25.2-4.33,8.56-8.85,17.08-12.87,25.72-1.36,2.94-3.09,4.1-6.73,4.34-6.25-.18-18-.26-29.6-.26H402c-5.75,0-11.62,0-16.74.06s-9.71.12-12.87.18c-3.65-.26-5.44-1.46-6.73-4.34-4-8.64-8.52-17.14-12.86-25.72-4-8-8-16-12.6-25.2,3.39,1.4,5.38,2.05,7.23,2.93,13.11,6.27,26.27,6.53,39.25.06a33.77,33.77,0,0,1,15.46-3.84,34.83,34.83,0,0,1,15.45,3.84c13.05,6.47,26.21,6.21,39.25-.06C458.52,230.32,460.51,229.61,463.91,228.27Z"/>
          <path class="cls-5" d="M451.37,295.77V296a4.76,4.76,0,0,1-4.65,4.81H357.27a4.76,4.76,0,0,1-4.64-4.81v-.18a4.72,4.72,0,0,1,4.64-4.8h89.51A4.71,4.71,0,0,1,451.37,295.77Z"/>
          <path class="cls-5" d="M429.36,493.07c-9.08.82-18.23,1.28-27.39,1.28s-18.29-.44-27.4-1.28c-49.46-4.54-75-60.78-50.2-109.27,8-15.62,16.26-31.09,25.91-45.48,5.86-8.82,10.51-17,17.56-25.59a6.76,6.76,0,0,1,5.13-2.49h58a6.59,6.59,0,0,1,5.12,2.49c7,8.65,11.62,16.77,17.57,25.59,9.58,14.33,17.86,29.88,25.84,45.48C504.38,432.29,478.8,488.59,429.36,493.07Z"/>
          <path class="cls-4" d="M402.27,372.42a39.7,39.7,0,1,0,39.37,39.7A39.54,39.54,0,0,0,402.27,372.42Z"/>
          <path class="cls-6" d="M411.93,415.65c.91,3.5,1.73,6.74,2.52,10a1.23,1.23,0,0,1-.49,1.09c-2.21.9-4.52,1.68-6.73,2.59a2,2,0,0,0-1.06.9,2.93,2.93,0,0,1-2.92,2.35,2.65,2.65,0,0,1-2.79-2.29c-.18-.78-.48-1-1.19-1.14-6.73-1.63-10.73-6-12.1-12.82a4.94,4.94,0,0,1-.12-.85c-2.57-.42-3.57-1.38-3.51-3.25.06-1.69,1.18-2.66,3.45-2.84.31-1.14.55-2.29.95-3.43a16,16,0,0,1,11.33-10.48c.61-.18,1-.24,1.19-1a2.66,2.66,0,0,1,2.79-2.29,3,3,0,0,1,2.92,2.17,1.72,1.72,0,0,0,1.18.78,18.37,18.37,0,0,1,7.46,3.08c-1,3.5-2,7-3,10.59-1.36-.66-2.57-1.39-3.87-1.87a12.92,12.92,0,0,0-3.94-.84c-3.1-.06-4.95,1.56-5.31,4.68a16,16,0,0,0-.06,2.93c.36,3.8,3.16,5.59,7.4,4.59a32.48,32.48,0,0,0,4.3-1.81C410.75,416.2,411.29,416,411.93,415.65Z"/>
        </g>
      </g>
    </g>
  </g>
</svg>
