<svg id="Слой_1" data-name="Слой 1" xmlns="http://www.w3.org/2000/svg" viewBox="0 0 510 512">
  <defs>
    <style>
      .cls-1 {
        fill: #f8d18a;
      }

      .cls-1, .cls-2, .cls-4, .cls-5 {
        stroke: #715139;
        stroke-width: 10px;
      }

      .cls-1, .cls-2, .cls-3, .cls-4, .cls-5 {
        stroke-miterlimit: 10;
      }

      .cls-2 {
        fill: #e8bb61;
      }

      .cls-3, .cls-4 {
        fill: none;
      }

      .cls-3 {
        stroke: #f8d18a;
        stroke-width: 5px;
      }

      .cls-5 {
        fill: #f5a361;
      }
    </style>
  </defs>
  <title>coins_big_chest_icon</title>
  <path class="cls-1" d="M502.83,331.33H150.59V145.25A40.27,40.27,0,0,1,190.86,105H462.57a40.27,40.27,0,0,1,40.27,40.27V331.33Z"/>
  <path class="cls-2" d="M464.56,184.54H191.44V139.62A34.64,34.64,0,0,1,226.08,105H429.92a34.64,34.64,0,0,1,34.64,34.64v44.92Z"/>
  <rect class="cls-2" x="191.44" y="218.16" width="273.12" height="81.56"/>
  <line class="cls-3" x1="192.98" y1="246.03" x2="463.27" y2="246.03"/>
  <line class="cls-4" x1="190.15" y1="218.16" x2="463.27" y2="218.16"/>
  <line class="cls-3" x1="460.47" y1="134.49" x2="195.78" y2="134.49"/>
  <line class="cls-4" x1="191.44" y1="299.72" x2="464.56" y2="299.72"/>
  <line class="cls-3" x1="459.06" y1="159.52" x2="194.37" y2="159.52"/>
  <line class="cls-3" x1="191.57" y1="272.87" x2="461.86" y2="272.87"/>
  <path class="cls-4" d="M464.81,184.54H191.69V139.62A34.64,34.64,0,0,1,226.33,105H430.17a34.64,34.64,0,0,1,34.64,34.64v44.92Z"/>
  <rect class="cls-4" x="191.44" y="218.16" width="273.12" height="81.56"/>
  <path class="cls-5" d="M332.52,245.86h-9A18.51,18.51,0,0,1,305,227.35V184.71H351v42.64A18.51,18.51,0,0,1,332.52,245.86Z"/>
  <rect class="cls-1" x="323.89" y="208.14" width="8.22" height="8.54"/>
  <path class="cls-1" d="M291.12,358.5H7.59V215a31.8,31.8,0,0,1,31.8-31.8H259.33a31.8,31.8,0,0,1,31.8,31.8V358.5Z"/>
  <path class="cls-2" d="M260.31,244.79H40.46V210.51a27.35,27.35,0,0,1,27.35-27.35H233a27.35,27.35,0,0,1,27.35,27.35v34.28Z"/>
  <line class="cls-4" x1="40.46" y1="244.79" x2="8.64" y2="244.79"/>
  <line class="cls-4" x1="257.45" y1="244.79" x2="289.28" y2="244.79"/>
  <rect class="cls-2" x="40.46" y="270.83" width="219.85" height="63.18"/>
  <line class="cls-3" x1="41.7" y1="292.42" x2="259.27" y2="292.42"/>
  <line class="cls-4" x1="39.43" y1="270.83" x2="259.27" y2="270.83"/>
  <line class="cls-3" x1="257.02" y1="206.01" x2="43.96" y2="206.01"/>
  <line class="cls-4" x1="40.46" y1="334.01" x2="260.31" y2="334.01"/>
  <line class="cls-3" x1="255.88" y1="225.4" x2="42.82" y2="225.4"/>
  <line class="cls-3" x1="40.57" y1="313.21" x2="258.14" y2="313.21"/>
  <path class="cls-4" d="M260.51,244.79H40.67V210.51A27.35,27.35,0,0,1,68,183.16H233.16a27.35,27.35,0,0,1,27.35,27.35Z"/>
  <rect class="cls-4" x="40.46" y="270.83" width="219.85" height="63.18"/>
  <path class="cls-5" d="M154.31,292.29h-7.85a14.61,14.61,0,0,1-14.61-14.61V244.92h37.08v32.76A14.62,14.62,0,0,1,154.31,292.29Z"/>
  <rect class="cls-1" x="147.08" y="263.07" width="6.62" height="6.62"/>
  <path class="cls-1" d="M473.34,407.28h-237v-120a26.57,26.57,0,0,1,26.57-26.57H446.76a26.57,26.57,0,0,1,26.57,26.57v120Z"/>
  <path class="cls-2" d="M447.59,312.24H263.84V283.59a22.86,22.86,0,0,1,22.86-22.86h138a22.86,22.86,0,0,1,22.86,22.86v28.65Z"/>
  <line class="cls-4" x1="263.84" y1="312.24" x2="237.24" y2="312.24"/>
  <line class="cls-4" x1="445.2" y1="312.24" x2="471.8" y2="312.24"/>
  <rect class="cls-2" x="263.84" y="334.01" width="183.75" height="52.8"/>
  <line class="cls-3" x1="264.88" y1="352.05" x2="446.72" y2="352.05"/>
  <line class="cls-4" x1="236.36" y1="334.01" x2="473.34" y2="334.01"/>
  <line class="cls-3" x1="444.84" y1="279.83" x2="266.77" y2="279.83"/>
  <line class="cls-3" x1="443.89" y1="296.04" x2="265.81" y2="296.04"/>
  <line class="cls-3" x1="263.93" y1="369.43" x2="445.77" y2="369.43"/>
  <path class="cls-4" d="M447.76,312.24H264V283.59a22.86,22.86,0,0,1,22.86-22.86h138a22.86,22.86,0,0,1,22.86,22.86v28.65Z"/>
  <rect class="cls-4" x="263.84" y="334.01" width="183.75" height="52.8"/>
  <path class="cls-5" d="M359,351.94h-6.56a12.22,12.22,0,0,1-12.22-12.22V312.34h31v27.38A12.22,12.22,0,0,1,359,351.94Z"/>
  <rect class="cls-1" x="352.95" y="327.52" width="5.53" height="5.53"/>
</svg>
