<svg id="Слой_1" data-name="Слой 1" xmlns="http://www.w3.org/2000/svg" viewBox="0 0 256 256">
  <defs>
    <style>
      .cls-1 {
        fill: #d46d53;
      }

      .cls-2 {
        fill: #b55947;
      }

      .cls-3 {
        fill: #705038;
      }

      .cls-4 {
        fill: #845e44;
      }

      .cls-5 {
        fill: #e2e2e2;
      }

      .cls-6 {
        fill: #fafafa;
      }

      .cls-7 {
        fill: #c9c9c9;
      }

      .cls-8 {
        fill: none;
      }
    </style>
  </defs>
  <title>ic_launcher_splash</title>
  <g>
    <path class="cls-1" d="M200.55,117.44c-8.35-46.11-41.91-71.2-82.29-97.14.23,22.92-5.52,46.69-23,63.82-22,20.3-48.09,41.66-26.12,79.07C104.57,221.33,217.18,187.83,200.55,117.44ZM68.39,151.27c-1.9,1.64-2.53,2.25.49-.65A3.8,3.8,0,0,1,68.39,151.27Z"/>
    <path class="cls-2" d="M176.17,114.5C170.76,84.63,149,68.38,122.86,51.57,123,66.42,119.28,81.82,108,92.92c-14.26,13.15-31.16,27-16.93,51.22C114,181.81,186.94,160.11,176.17,114.5ZM90.55,136.42c-1.22,1.06-1.63,1.46.32-.42A2.13,2.13,0,0,1,90.55,136.42Z"/>
    <g>
      <path class="cls-3" d="M145,147.87,9.73,226.39h0a6.88,6.88,0,0,0,9.2,2.23l123.41-70.89A7.2,7.2,0,0,0,145,147.87Z"/>
      <path class="cls-4" d="M145,147.87h0l.05,0c-2-3.45-6.41-4.64-9.38-2.64L12,216.59A6.87,6.87,0,0,0,9.51,226l.22.38Z"/>
    </g>
    <g>
      <path class="cls-5" d="M199.88,116.24q-.57-1-1.17-2.07C186.27,92.63,170.13,78.67,162.65,83l23.7,41.06Z"/>
      <rect class="cls-6" x="71.22" y="107.38" width="110.67" height="47.51" transform="translate(-48.61 80.85) rotate(-30)"/>
      <path class="cls-6" d="M66.81,138.32l-.08-.13c-7.19,4.15-2.94,25,9.49,46.51.43.74.86,1.47,1.29,2.18l13-7.5Z"/>
    </g>
    <g>
      <path class="cls-7" d="M199.88,116.24c.4.67.81,1.36,1.21,2.05,12.43,21.54,16.45,42.5,9,46.81l-23.71-41Z"/>
      <rect class="cls-5" x="94.95" y="148.42" width="110.67" height="47.63" transform="translate(-65.98 98.22) rotate(-30)"/>
      <path class="cls-5" d="M114.22,220.44l.08.13c-7.19,4.16-23.1-9.94-35.54-31.48-.42-.73-.84-1.47-1.25-2.21l13-7.5Z"/>
    </g>
    <g>
      <path class="cls-4" d="M229.16,91l-26.62,15.37-13.66,7.89a7.15,7.15,0,0,0-2.53,9.79l19.8-11.43,32.81-19A7.18,7.18,0,0,0,229.16,91Z"/>
      <path class="cls-3" d="M238.92,93.7l-32.77,18.92L186.4,124l-.05,0a7.15,7.15,0,0,0,9.73,2.72l13.68-7.9,26.63-15.38A7.17,7.17,0,0,0,239,93.67Z"/>
    </g>
    <path class="cls-7" d="M173.35,131.55c.38.69.77,1.38,1.17,2.08,12.44,21.53,28.35,35.63,35.54,31.47l-23.71-41Z"/>
    <path class="cls-5" d="M173.35,131.55c-.4-.67-.81-1.36-1.21-2.05C159.71,108,155.46,87.14,162.65,83l23.7,41.06Z"/>
    <path class="cls-4" d="M154,147.74c-.3-.78-.51-1.35-.61-1.71a11.8,11.8,0,0,1-.34-5.54,32.27,32.27,0,0,1,1.83-5.93,26.46,26.46,0,0,0,1.32-4,6.16,6.16,0,0,0-.06-3,5,5,0,0,0-2.09-3,4,4,0,0,0-3.35-.53,5.08,5.08,0,0,0-2.63,1.58,11.47,11.47,0,0,0-1.93,3l-5.62-3.53a16.08,16.08,0,0,1,3.61-5.52,11.59,11.59,0,0,1,5.47-3.06,11.28,11.28,0,0,1,8.58,1q3.73,2.13,5.3,7.66a10.57,10.57,0,0,1,.31,5,35.29,35.29,0,0,1-1.77,5.49,30.48,30.48,0,0,0-1.69,5.12,9.28,9.28,0,0,0,.23,4.5,7.43,7.43,0,0,0,.34,1Zm7.94,15a4.62,4.62,0,0,1-3.93-.81,6.82,6.82,0,0,1-2.56-3.85,6.4,6.4,0,0,1,.19-4.53,4.24,4.24,0,0,1,3-2.52,4.59,4.59,0,0,1,3.92.81,6.88,6.88,0,0,1,2.57,3.85,6.48,6.48,0,0,1-.19,4.54A4.27,4.27,0,0,1,162,162.72Z"/>
    <path class="cls-4" d="M139.73,160.81l3.79-2.32-2.82-5.17-4.28,2.61-4.61-6.72,4-2.43-3-5.56L128.2,144l-6.76-9.66-4,2.44,6.65,9.72-5.46,3.33-6.7-9.69-4,2.44,6.65,9.72-4,2.44,3,5.56,4.53-2.76,4.61,6.72-4.22,2.58,2.82,5.17,4.75-2.9,7.46,10.81,4.09-2.5-7.46-10.81,5.46-3.34,7.46,10.82,4-2.47Zm-12.72.87L122.33,155l5.56-3.4,4.68,6.69Z"/>
    <path class="cls-4" d="M92.27,161.11l-5.54-6.54-5.63,6.3L87,167l15.18,15.16,3.69-4.14Zm22.54,31a5.3,5.3,0,0,0,1.33-4,6.94,6.94,0,0,0-1.87-4.28,5.62,5.62,0,0,0-3.83-2.07,4.17,4.17,0,0,0-3.6,1.5,5.26,5.26,0,0,0-1.33,4,6.93,6.93,0,0,0,1.86,4.28,5.7,5.7,0,0,0,3.84,2.07A4.2,4.2,0,0,0,114.81,192.09Z"/>
    <g>
      <path class="cls-8" d="M114.81,192.09a4.2,4.2,0,0,1-3.6,1.5,5.7,5.7,0,0,1-3.84-2.07,6.93,6.93,0,0,1-1.86-4.28,5.26,5.26,0,0,1,1.33-4,4.17,4.17,0,0,1,3.6-1.5,5.62,5.62,0,0,1,3.83,2.07,6.94,6.94,0,0,1,1.87,4.28A5.3,5.3,0,0,1,114.81,192.09Zm50.13-31.88a4.24,4.24,0,0,1-3,2.51,4.62,4.62,0,0,1-3.93-.81,6.82,6.82,0,0,1-2.56-3.85,6.4,6.4,0,0,1,.19-4.53,4.24,4.24,0,0,1,3-2.52,4.59,4.59,0,0,1,3.92.81,6.88,6.88,0,0,1,2.57,3.85A6.43,6.43,0,0,1,164.94,160.21Z"/>
      <polygon class="cls-8" points="132.57 158.29 130.98 156.02 125.33 159.28 127.01 161.68 132.57 158.29"/>
      <path class="cls-3" d="M162.57,151.82a4.59,4.59,0,0,0-3.92-.81,4.24,4.24,0,0,0-3,2.52,6.4,6.4,0,0,0-.19,4.53,6.82,6.82,0,0,0,2.56,3.85,4.62,4.62,0,0,0,3.93.81,4.24,4.24,0,0,0,3-2.51,6.43,6.43,0,0,0,.2-4.54A6.88,6.88,0,0,0,162.57,151.82Z"/>
      <path class="cls-3" d="M154,147.74l6.9-1.71a7.43,7.43,0,0,1-.34-1,9.28,9.28,0,0,1-.23-4.5c.12-.54.27-1.13.47-1.77l-7.9,4.56a14.17,14.17,0,0,0,.49,2.69C153.52,146.39,153.73,147,154,147.74Z"/>
      <polygon class="cls-3" points="118.56 166.84 121.38 172.01 126.13 169.11 133.59 179.92 137.68 177.42 130.22 166.61 135.68 163.27 143.14 174.09 147.18 171.62 139.73 160.81 143.52 158.49 140.7 153.32 136.42 155.94 134.92 153.74 130.98 156.02 132.57 158.29 127.01 161.68 125.33 159.28 121.06 161.75 122.78 164.26 118.56 166.84"/>
      <path class="cls-3" d="M114.27,183.79a5.62,5.62,0,0,0-3.83-2.07,4.17,4.17,0,0,0-3.6,1.5,5.26,5.26,0,0,0-1.33,4,6.93,6.93,0,0,0,1.86,4.28,5.7,5.7,0,0,0,3.84,2.07,4.2,4.2,0,0,0,3.6-1.5,5.3,5.3,0,0,0,1.33-4A6.94,6.94,0,0,0,114.27,183.79Z"/>
      <polygon class="cls-3" points="105.88 178.02 101.75 172.89 96.15 176.13 102.19 182.16 105.88 178.02"/>
    </g>
  </g>
</svg>
