<svg id="Слой_1" data-name="Слой 1" xmlns="http://www.w3.org/2000/svg" viewBox="0 0 512 512">
  <defs>
    <style>
      .cls-1 {
        fill: #f7d08a;
      }

      .cls-2 {
        fill: #845e44;
      }

      .cls-3 {
        fill: #d46d53;
      }

      .cls-4 {
        fill: #b55947;
      }

      .cls-5 {
        fill: #e2e2e2;
      }

      .cls-6 {
        fill: #fafafa;
      }

      .cls-7 {
        fill: #705038;
      }

      .cls-8 {
        fill: #c9c9c9;
      }

      .cls-9 {
        fill: none;
      }
    </style>
  </defs>
  <title>ic_launcher</title>
  <g>
    <rect class="cls-1" width="512" height="512" rx="12"/>
    <path class="cls-2" d="M272.05,292.1,0,449.17V467L291.73,297.65C287.55,290.4,278.29,287.92,272.05,292.1Z"/>
    <path class="cls-3" d="M408.24,233.84C390.71,137.09,320.3,84.43,235.57,30c.47,48.09-11.6,98-48.16,133.93-46.18,42.59-100.91,87.4-54.82,165.92C206.85,451.84,443.13,381.55,408.24,233.84Zm-277.33,71c-4,3.43-5.3,4.72,1-1.37A8.18,8.18,0,0,1,130.91,304.83Z"/>
    <path class="cls-4" d="M357.08,227.68c-11.35-62.68-57-96.79-111.86-132,.31,31.15-7.51,63.47-31.2,86.76C184.11,210,148.65,239,178.51,289.88,226.61,368.91,379.69,323.37,357.08,227.68Zm-179.66,46c-2.57,2.23-3.43,3.06.67-.89A5.66,5.66,0,0,1,177.42,273.67Z"/>
    <g>
      <path class="cls-5" d="M406.83,231.32c-.81-1.45-1.62-2.9-2.46-4.35-26.09-45.19-60-74.48-75.66-65.42l49.74,86.15Z"/>
      <rect class="cls-6" x="136.86" y="212.73" width="232.22" height="99.7" transform="translate(-97.4 161.66) rotate(-30)"/>
      <path class="cls-6" d="M127.6,277.66l-.16-.29c-15.09,8.72-6.18,52.42,19.92,97.61.89,1.55,1.79,3.07,2.7,4.58l27.28-15.75Z"/>
    </g>
    <path class="cls-7" d="M291.64,297.7,0,467v17L286.1,318.39A15.15,15.15,0,0,0,291.64,297.7Z"/>
    <g>
      <path class="cls-8" d="M406.83,231.32q1.28,2.13,2.53,4.3c26.09,45.2,34.52,89.18,18.83,98.24L378.45,247.7Z"/>
      <rect class="cls-5" x="186.65" y="298.86" width="232.22" height="99.94" transform="translate(-133.85 198.11) rotate(-30)"/>
      <path class="cls-5" d="M227.08,450l.17.28c-15.09,8.71-48.48-20.86-74.57-66.05q-1.34-2.32-2.62-4.64l27.28-15.75Z"/>
    </g>
    <g>
      <path class="cls-2" d="M468.27,178.36l-55.86,32.25-28.67,16.55a15,15,0,0,0-5.29,20.54l41.53-24L488.84,184A15.07,15.07,0,0,0,468.27,178.36Z"/>
      <path class="cls-7" d="M488.74,184,420,223.72l-41.44,23.93-.09,0a15,15,0,0,0,20.4,5.71l28.7-16.57,55.89-32.26a15.08,15.08,0,0,0,5.4-20.61Z"/>
    </g>
    <path class="cls-8" d="M351.16,263.46q1.2,2.16,2.46,4.34c26.09,45.2,59.48,74.77,74.57,66.06L378.45,247.7Z"/>
    <path class="cls-5" d="M351.16,263.46c-.85-1.42-1.69-2.85-2.53-4.31-26.1-45.19-35-88.89-19.92-97.6l49.74,86.15Z"/>
    <path class="cls-2" d="M310.62,297.41c-.64-1.63-1.06-2.82-1.27-3.57a24.52,24.52,0,0,1-.71-11.63,66.84,66.84,0,0,1,3.83-12.45,54.35,54.35,0,0,0,2.77-8.45,12.88,12.88,0,0,0-.13-6.39,10.46,10.46,0,0,0-4.39-6.39,8.38,8.38,0,0,0-7-1.11,10.8,10.8,0,0,0-5.52,3.31,24.86,24.86,0,0,0-4.05,6.23l-11.78-7.41A33.55,33.55,0,0,1,289.91,238a24.3,24.3,0,0,1,11.48-6.42q10.14-2.51,18,2t11.14,16.08a22.31,22.31,0,0,1,.64,10.45,72.05,72.05,0,0,1-3.71,11.52,65.46,65.46,0,0,0-3.55,10.74,19.63,19.63,0,0,0,.48,9.44,15.45,15.45,0,0,0,.72,2.07Zm16.65,31.45a9.61,9.61,0,0,1-8.23-1.7,14.4,14.4,0,0,1-5.39-8.08,13.56,13.56,0,0,1,.41-9.52,8.94,8.94,0,0,1,6.25-5.28,9.64,9.64,0,0,1,8.23,1.71,14.31,14.31,0,0,1,5.39,8.08,13.48,13.48,0,0,1-.41,9.51A8.9,8.9,0,0,1,327.27,328.86Z"/>
    <path class="cls-2" d="M280.61,324.84l7.95-4.86-5.92-10.84-9,5.48L264,300.51l8.34-5.1L266,283.74l-9.55,5.83-14.17-20.26-8.38,5.11,14,20.39-11.45,7L222.3,281.48l-8.38,5.12,14,20.39-8.38,5.11,6.37,11.68,9.51-5.8,9.67,14.11-8.87,5.41,5.92,10.84,10-6.08L267.72,365l8.59-5.24L260.67,337l11.45-7,15.65,22.69,8.48-5.18Zm-26.69,1.83-9.81-14,11.66-7.12,9.81,14Z"/>
    <path class="cls-2" d="M181,325.48,169.4,311.76,157.59,325,170,337.83l31.84,31.82,7.76-8.69Zm47.3,65a11.14,11.14,0,0,0,2.79-8.44,14.51,14.51,0,0,0-3.91-9,12,12,0,0,0-8.06-4.35,8.81,8.81,0,0,0-7.54,3.14,11.15,11.15,0,0,0-2.8,8.44,14.53,14.53,0,0,0,3.92,9,11.91,11.91,0,0,0,8.05,4.35A8.82,8.82,0,0,0,228.32,390.49Z"/>
    <g>
      <path class="cls-9" d="M228.31,390.49a8.79,8.79,0,0,1-7.54,3.14,11.91,11.91,0,0,1-8.05-4.35,14.53,14.53,0,0,1-3.92-9,11.15,11.15,0,0,1,2.8-8.44,8.81,8.81,0,0,1,7.54-3.14,12,12,0,0,1,8.06,4.35,14.51,14.51,0,0,1,3.91,9A11.11,11.11,0,0,1,228.31,390.49Zm105.21-66.91a8.9,8.9,0,0,1-6.25,5.28,9.61,9.61,0,0,1-8.23-1.7,14.4,14.4,0,0,1-5.39-8.08,13.56,13.56,0,0,1,.41-9.52,8.94,8.94,0,0,1,6.25-5.28,9.64,9.64,0,0,1,8.23,1.71,14.31,14.31,0,0,1,5.39,8.08A13.48,13.48,0,0,1,333.52,323.58Z"/>
      <polygon class="cls-9" points="265.58 319.55 262.25 314.79 250.4 321.63 253.92 326.67 265.58 319.55"/>
      <path class="cls-7" d="M328.54,306a9.64,9.64,0,0,0-8.23-1.71,8.94,8.94,0,0,0-6.25,5.28,13.56,13.56,0,0,0-.41,9.52,14.4,14.4,0,0,0,5.39,8.08,9.61,9.61,0,0,0,8.23,1.7,8.9,8.9,0,0,0,6.25-5.28,13.48,13.48,0,0,0,.41-9.51A14.31,14.31,0,0,0,328.54,306Z"/>
      <path class="cls-7" d="M310.62,297.41l14.48-3.57a15.45,15.45,0,0,1-.72-2.07,19.63,19.63,0,0,1-.48-9.44c.25-1.14.58-2.37,1-3.7l-16.56,9.56a28.25,28.25,0,0,0,1,5.65C309.56,294.58,310,295.78,310.62,297.41Z"/>
      <polygon class="cls-7" points="236.18 337.5 242.1 348.34 252.07 342.26 267.72 364.95 276.31 359.71 260.67 337.01 272.12 330.02 287.77 352.71 296.25 347.53 280.61 324.84 288.56 319.98 282.64 309.14 273.67 314.62 270.51 310.02 262.25 314.79 265.58 319.55 253.92 326.67 250.4 321.63 241.43 326.81 245.05 332.09 236.18 337.5"/>
      <path class="cls-7" d="M227.2,373.07a12,12,0,0,0-8.06-4.35,8.81,8.81,0,0,0-7.54,3.14,11.15,11.15,0,0,0-2.8,8.44,14.53,14.53,0,0,0,3.92,9,11.91,11.91,0,0,0,8.05,4.35,8.79,8.79,0,0,0,7.54-3.14,11.11,11.11,0,0,0,2.8-8.44A14.51,14.51,0,0,0,227.2,373.07Z"/>
      <polygon class="cls-7" points="209.59 360.96 200.92 350.2 189.16 356.99 201.83 369.65 209.59 360.96"/>
    </g>
  </g>
</svg>
