<svg id="Слой_1" data-name="Слой 1" xmlns="http://www.w3.org/2000/svg" viewBox="0 0 512 512">
  <defs>
    <style>
      .cls-1 {
        fill: #f7d08a;
      }

      .cls-2 {
        fill: #845e44;
      }

      .cls-3 {
        fill: #705038;
      }

      .cls-4 {
        fill: #d46d53;
      }

      .cls-5 {
        fill: #b55947;
      }

      .cls-6 {
        fill: #e2e2e2;
      }

      .cls-7 {
        fill: #fafafa;
      }

      .cls-8 {
        fill: #c9c9c9;
      }

      .cls-9 {
        fill: none;
      }
    </style>
  </defs>
  <title>ic_launcher_round</title>
  <g>
    <g>
      <path class="cls-1" d="M256.54,0h0C115.16,0,.54,114.59.54,256h0a254.9,254.9,0,0,0,56.58,160.5l215.47-124.4c6.24-4.18,15.51-1.7,19.69,5.55l-.1.05a15.14,15.14,0,0,1-5.54,20.69L77.22,438.66A255.17,255.17,0,0,0,256.54,512h0c141.39,0,256-114.62,256-256h0C512.54,114.59,397.93,0,256.54,0Z"/>
      <path class="cls-2" d="M292.18,297.68h0l.1-.05c-4.18-7.25-13.45-9.73-19.69-5.55L57.12,416.48c3.25,4,6.61,8,10.09,11.8Z"/>
      <path class="cls-3" d="M292.18,297.68l-225,130.6q4.86,5.34,10,10.38L286.64,318.37A15.14,15.14,0,0,0,292.18,297.68Z"/>
      <polygon class="cls-3" points="67.21 428.28 67.21 428.28 292.18 297.68 292.18 297.68 67.21 428.28"/>
    </g>
    <path class="cls-4" d="M408.78,233.82C391.25,137.07,320.84,84.41,236.11,30c.47,48.09-11.59,98-48.15,133.93C141.77,206.5,87,251.31,133.13,329.82,207.39,451.81,443.67,381.53,408.78,233.82Zm-277.33,71c-4,3.43-5.29,4.72,1-1.37A7.65,7.65,0,0,1,131.45,304.81Z"/>
    <path class="cls-5" d="M357.63,227.66c-11.36-62.68-57-96.79-111.87-132.06.31,31.16-7.51,63.48-31.19,86.77C184.65,210,149.19,239,179.05,289.86,227.16,368.88,380.23,323.35,357.63,227.66ZM178,273.65c-2.57,2.22-3.43,3.06.67-.89A5.53,5.53,0,0,1,178,273.65Z"/>
    <g>
      <path class="cls-6" d="M407.37,231.3q-1.2-2.18-2.46-4.35c-26.09-45.19-60-74.48-75.66-65.42L379,247.68Z"/>
      <rect class="cls-7" x="137.4" y="212.71" width="232.22" height="99.7" transform="translate(-97.32 161.93) rotate(-30)"/>
      <path class="cls-7" d="M128.14,277.64l-.16-.29c-15.09,8.71-6.17,52.41,19.92,97.61.89,1.54,1.8,3.07,2.71,4.58l27.28-15.75Z"/>
    </g>
    <g>
      <path class="cls-8" d="M407.37,231.3q1.28,2.13,2.54,4.3c26.09,45.19,34.52,89.18,18.82,98.24L379,247.68Z"/>
      <rect class="cls-6" x="187.2" y="298.84" width="232.22" height="99.94" transform="translate(-133.77 198.38) rotate(-30)"/>
      <path class="cls-6" d="M227.63,450l.16.28c-15.09,8.71-48.48-20.86-74.57-66.05q-1.33-2.32-2.61-4.64l27.28-15.75Z"/>
    </g>
    <g>
      <path class="cls-2" d="M468.82,178.33,413,210.59l-28.67,16.55A15,15,0,0,0,379,247.68l41.53-24L489.38,184A15.07,15.07,0,0,0,468.82,178.33Z"/>
      <path class="cls-3" d="M489.29,184l-68.77,39.7-41.44,23.93-.09.05a15,15,0,0,0,20.41,5.71l28.7-16.57L484,204.55a15.05,15.05,0,0,0,5.4-20.6Z"/>
    </g>
    <path class="cls-8" d="M351.71,263.44q1.2,2.16,2.45,4.34c26.1,45.2,59.48,74.77,74.57,66.06L379,247.68Z"/>
    <path class="cls-6" d="M351.71,263.44c-.86-1.42-1.7-2.86-2.54-4.31-26.09-45.19-35-88.89-19.92-97.6L379,247.68Z"/>
    <path class="cls-2" d="M311.16,297.39c-.64-1.64-1.06-2.83-1.27-3.57a24.65,24.65,0,0,1-.71-11.63A66.39,66.39,0,0,1,313,269.74a54.69,54.69,0,0,0,2.77-8.45,12.92,12.92,0,0,0-.13-6.4,10.4,10.4,0,0,0-4.39-6.38,8.34,8.34,0,0,0-7-1.11,10.8,10.8,0,0,0-5.52,3.31,24.58,24.58,0,0,0-4,6.23l-11.78-7.41A33.52,33.52,0,0,1,290.45,238a24.52,24.52,0,0,1,11.48-6.42q10.14-2.49,18,2t11.13,16.08a22.31,22.31,0,0,1,.64,10.45A71,71,0,0,1,328,271.57a65,65,0,0,0-3.54,10.74,19.39,19.39,0,0,0,.48,9.44,14.36,14.36,0,0,0,.71,2.07Zm16.66,31.45a9.61,9.61,0,0,1-8.23-1.7,14.37,14.37,0,0,1-5.39-8.09,13.54,13.54,0,0,1,.4-9.51,9,9,0,0,1,6.25-5.28,9.61,9.61,0,0,1,8.23,1.71,14.31,14.31,0,0,1,5.39,8.08,13.54,13.54,0,0,1-.4,9.51A8.92,8.92,0,0,1,327.82,328.84Z"/>
    <path class="cls-2" d="M281.15,324.82l8-4.86-5.92-10.84-9,5.48-9.67-14.11,8.34-5.1-6.38-11.67L257,289.54l-14.18-20.26-8.38,5.12,14,20.39-11.45,7-14.07-20.32-8.38,5.11,14,20.39L220,312.08l6.38,11.68,9.5-5.81,9.68,14.11-8.87,5.42,5.92,10.84,10-6.09,15.64,22.7,8.59-5.24L261.21,337l11.45-7,15.65,22.69,8.49-5.18Zm-26.68,1.83-9.82-14,11.66-7.12,9.82,14Z"/>
    <path class="cls-2" d="M181.56,325.46l-11.62-13.72L158.13,325l12.4,12.85,31.84,31.81,7.76-8.68Zm47.3,65a11.1,11.1,0,0,0,2.79-8.44,14.51,14.51,0,0,0-3.91-9,11.93,11.93,0,0,0-8.05-4.35,8.81,8.81,0,0,0-7.55,3.14,11.1,11.1,0,0,0-2.79,8.44,14.54,14.54,0,0,0,3.91,9,11.93,11.93,0,0,0,8.05,4.35A8.81,8.81,0,0,0,228.86,390.47Z"/>
    <g>
      <path class="cls-9" d="M228.86,390.47a8.82,8.82,0,0,1-7.55,3.14,11.93,11.93,0,0,1-8.05-4.35,14.54,14.54,0,0,1-3.91-9,11.1,11.1,0,0,1,2.79-8.44,8.81,8.81,0,0,1,7.55-3.14,11.93,11.93,0,0,1,8.05,4.35,14.51,14.51,0,0,1,3.91,9A11.1,11.1,0,0,1,228.86,390.47Zm105.21-66.91a8.92,8.92,0,0,1-6.25,5.28,9.61,9.61,0,0,1-8.23-1.7,14.37,14.37,0,0,1-5.39-8.09,13.48,13.48,0,0,1,.4-9.51,9,9,0,0,1,6.25-5.28,9.61,9.61,0,0,1,8.23,1.71,14.31,14.31,0,0,1,5.39,8.08A13.54,13.54,0,0,1,334.07,323.56Z"/>
      <polygon class="cls-9" points="266.13 319.53 262.79 314.77 250.94 321.61 254.47 326.65 266.13 319.53"/>
      <path class="cls-3" d="M329.08,306a9.61,9.61,0,0,0-8.23-1.71,9,9,0,0,0-6.25,5.28,13.48,13.48,0,0,0-.4,9.51,14.37,14.37,0,0,0,5.39,8.09,9.61,9.61,0,0,0,8.23,1.7,8.92,8.92,0,0,0,6.25-5.28,13.54,13.54,0,0,0,.4-9.51A14.31,14.31,0,0,0,329.08,306Z"/>
      <path class="cls-3" d="M311.16,297.39l14.48-3.57a14.36,14.36,0,0,1-.71-2.07,19.39,19.39,0,0,1-.48-9.44c.24-1.14.57-2.38,1-3.7l-16.57,9.56a29,29,0,0,0,1,5.65C310.1,294.56,310.52,295.75,311.16,297.39Z"/>
      <polygon class="cls-3" points="236.73 337.48 242.65 348.32 252.62 342.24 268.26 364.93 276.86 359.69 261.21 336.99 272.67 330 288.31 352.69 296.8 347.51 281.15 324.81 289.11 319.96 283.19 309.12 274.21 314.6 271.06 310 262.79 314.77 266.13 319.53 254.47 326.65 250.94 321.61 241.98 326.79 245.6 332.06 236.73 337.48"/>
      <path class="cls-3" d="M227.74,373.05a11.93,11.93,0,0,0-8.05-4.35,8.81,8.81,0,0,0-7.55,3.14,11.1,11.1,0,0,0-2.79,8.44,14.54,14.54,0,0,0,3.91,9,11.93,11.93,0,0,0,8.05,4.35,8.82,8.82,0,0,0,7.55-3.14,11.1,11.1,0,0,0,2.79-8.44A14.51,14.51,0,0,0,227.74,373.05Z"/>
      <polygon class="cls-3" points="210.13 360.94 201.47 350.18 189.71 356.97 202.38 369.62 210.13 360.94"/>
    </g>
  </g>
</svg>
