<svg id="Слой_1" data-name="Слой 1" xmlns="http://www.w3.org/2000/svg" viewBox="0 0 186 232">
  <defs>
    <style>
      .cls-1 {
        opacity: 0.25;
      }

      .cls-2 {
        fill: #e8ba61;
      }

      .cls-3 {
        fill: #f4a261;
      }
    </style>
  </defs>
  <title>store_coins_pack_background</title>
  <g>
    <g class="cls-1">
      <path d="M170.62,2H17.38C8.89,2,2,7.56,2,14.42V219.58C2,226.44,8.89,232,17.38,232H170.62c8.49,0,15.38-5.56,15.38-12.42V14.42C186,7.56,179.11,2,170.62,2Z"/>
      <path d="M2,194.34H186v25.09c0,6.86-6.89,12.43-15.38,12.43H17.38C8.89,231.86,2,226.29,2,219.43Z"/>
      <path d="M186,39.51H2V14.42C2,7.56,8.89,2,17.38,2H170.62C179.11,2,186,7.56,186,14.42Z"/>
    </g>
    <g>
      <path class="cls-2" d="M168.62,0H15.38C6.89,0,0,5.56,0,12.42V217.58C0,224.44,6.89,230,15.38,230H168.62c8.49,0,15.38-5.56,15.38-12.42V12.42C184,5.56,177.11,0,168.62,0Z"/>
      <path class="cls-3" d="M0,192.34H184v25.09c0,6.86-6.89,12.43-15.38,12.43H15.38C6.89,229.86,0,224.29,0,217.43Z"/>
      <path class="cls-3" d="M184,37.51H0V12.42C0,5.56,6.89,0,15.38,0H168.62C177.11,0,184,5.56,184,12.42Z"/>
    </g>
  </g>
</svg>
