<svg id="Слой_1" data-name="Слой 1" xmlns="http://www.w3.org/2000/svg" viewBox="0 0 512 512">
  <defs>
    <style>
      .cls-1 {
        fill: #4d4d4d;
      }
    </style>
  </defs>
  <title>coin_icon_grey</title>
  <g>
    <path class="cls-1" d="M477.72,133.93c-5.33,20.57-21.59,30.12-39.09,38-24.4,11-50.42,15.12-76.9,16.33-28.25,1.28-56.17-1.25-83.42-9.32A143.84,143.84,0,0,1,244,164c-17.67-10.81-26.18-25.84-23.8-47,1.37-12.21,7.66-20.9,16.71-28.06,15.73-12.44,34.17-18.94,53.42-23.28a265.82,265.82,0,0,1,117.93.09c15.52,3.47,30.47,8.7,44.13,17.1,12.09,7.44,22.15,16.56,25.36,31.23Z"/>
    <path class="cls-1" d="M34.54,212.7c5.25-20.61,21.5-30.14,39-38a181.66,181.66,0,0,1,67.84-15.52c18.09-.71,36.26.45,54.39.8a24.67,24.67,0,0,1,3.12.5V285.12c-6,.62-11.92,1.52-17.9,1.81-29.25,1.43-58.22-.36-86.51-8.57-17.28-5-33.73-11.75-47.27-24.16a41.56,41.56,0,0,1-12.66-21.58Z"/>
    <path class="cls-1" d="M477.72,264.65c-5.73,20.73-22.22,30.43-40.11,38.07C405.15,316.58,370.89,320,336,318.57c-25.64-1.08-50.71-5.31-74.53-15.26-12.72-5.32-24.63-12-33.51-23-4.46-5.52-7.39-11.66-7.54-18.88-.17-8.25-1.09-16.58,2.31-24.85,15.84,24,40.36,32.85,66,38.79,47,10.88,93.81,9.81,139.84-5.6,14.31-4.79,27.71-11.52,38.39-22.58,3-3.08,5.35-6.72,8.26-10.44.85,2.4,1.69,4.75,2.53,7.11Z"/>
    <path class="cls-1" d="M477.72,333c-5.33,20.57-21.52,30.17-39.05,38-22.49,10-46.39,14.3-70.85,15.92-30.46,2-60.49-.3-89.82-9-16.95-5-33.09-11.88-46.1-24.47-7.83-7.59-12.29-16.6-11.66-27.74q.57-10,1.17-20l1.64-.19c1.15,1.71,2.25,3.46,3.46,5.13,6.94,9.63,16.54,16,26.94,21.15,20.11,10,41.68,15,63.82,17.51A265.59,265.59,0,0,0,401.6,346c21.16-4.36,41.68-10.67,58.93-24.35,5.53-4.4,10-10.19,14.94-15.4l2.25,6.92Z"/>
    <path class="cls-1" d="M477.72,198.85c-3.94,17.24-16.58,26.78-31,34.41-20.28,10.7-42.24,15.79-64.85,18.47a274,274,0,0,1-73.32-1c-22.8-3.44-44.88-9.28-64.62-21.76-10-6.33-19.22-13.89-22.29-26a57.38,57.38,0,0,1,1-31.83c15.33,23.51,39,32.35,63.65,38.42,44.66,11,89.43,10.44,133.76-2.27,17.29-5,33.71-12,46.67-25.15,3.08-3.11,5.51-6.86,8.55-10.7.86,2.62,1.66,5,2.46,7.43Z"/>
    <path class="cls-1" d="M477.72,398c-3.89,17.26-16.59,26.72-31,34.42-19.31,10.33-40.3,15.37-61.81,18.17a271.48,271.48,0,0,1-76.7-.7c-22.77-3.51-44.85-9.32-64.55-21.86-9.87-6.27-18.92-13.76-22-25.59-2.72-10.39-2.34-21.06.79-32,3,3.82,5.33,7.42,8.25,10.47,10.41,10.88,23.53,17.42,37.46,22.44,31.69,11.43,64.54,14.31,97.9,12.43,24.43-1.38,48.32-5.67,71-15.31,13-5.51,25.05-12.41,33.84-23.89,1.38-1.8,2.54-3.76,4.19-6.21,1,2.92,1.81,5.33,2.63,7.73Z"/>
    <path class="cls-1" d="M34.54,343.42c.81-2.52,1.61-5.05,2.53-7.93,15.17,23.21,38.67,31.72,63.14,38.19,31.31,8.27,63.19,9.18,95.26,5.71,1-.11,2-.2,3.82-.38,0,6.19-.46,12.24.14,18.18s2.27,11.47,3.57,17.73c-5.29.64-10.9,1.54-16.55,2-31.58,2.39-62.8.48-93.33-8.52-17-5-33.1-11.78-46.32-24.12a43,43,0,0,1-12.26-20.92Z"/>
    <path class="cls-1" d="M34.54,277.63c.84-2.37,1.68-4.74,2.67-7.55,10.88,18.26,28.1,26.81,46.47,33.4,26.76,9.6,54.56,12.95,82.87,12.38,10.64-.21,21.27-1,32.25-1.6v36c-4.13.43-8.36,1-12.6,1.31-38.39,2.79-76.07-.12-111.92-15.36-8.12-3.45-15.72-8.42-23-13.45-8.54-5.88-14-14.28-16.71-24.39Z"/>
  </g>
</svg>
