<svg id="Слой_1" data-name="Слой 1" xmlns="http://www.w3.org/2000/svg" viewBox="0 0 512 505">
  <defs>
    <style>
      .cls-1 {
        fill: #fff;
      }
    </style>
  </defs>
  <title>next_hint_icon_1</title>
  <path class="cls-1" d="M439.87,87H72.13A70.58,70.58,0,0,0,1.54,157.59V346.41A70.58,70.58,0,0,0,72.13,417H439.87a70.58,70.58,0,0,0,70.59-70.59V157.59A70.58,70.58,0,0,0,439.87,87ZM470.7,346.41a30.83,30.83,0,0,1-30.83,30.83H72.13A30.83,30.83,0,0,1,41.3,346.41V157.59a30.83,30.83,0,0,1,30.83-30.83H439.87a30.83,30.83,0,0,1,30.83,30.83ZM177.48,218.22V326.53a11,11,0,0,1-10.95,11H148.67a11,11,0,0,1-10.95-11V218.22a11,11,0,0,0-11-10.95H92a11,11,0,0,1-11-11V178.46a11,11,0,0,1,11-11H221.2a10.94,10.94,0,0,1,10.94,11v17.86a10.94,10.94,0,0,1-10.94,11H188.42A10.94,10.94,0,0,0,177.48,218.22Zm50.7,79.5h17.87A10.94,10.94,0,0,1,257,308.67v17.86a10.94,10.94,0,0,1-10.94,11H228.18a11,11,0,0,1-11-11V308.67A11,11,0,0,1,228.18,297.72Zm79.52,0h17.86a11,11,0,0,1,10.95,10.95v17.86a11,11,0,0,1-10.95,11H307.7a11,11,0,0,1-10.95-11V308.67A11,11,0,0,1,307.7,297.72Zm79.52,0h17.86A11,11,0,0,1,416,308.67v17.86a11,11,0,0,1-10.95,11H387.22a11,11,0,0,1-11-11V308.67A11,11,0,0,1,387.22,297.72Z"/>
</svg>
