<svg id="Слой_1" data-name="Слой 1" xmlns="http://www.w3.org/2000/svg" viewBox="0 0 512 512">
  <defs>
    <style>
      .cls-1 {
        fill: #fff;
      }
    </style>
  </defs>
  <title>people_icon</title>
  <path class="cls-1" d="M348.91,233.39c38.56,0,69.45-31.77,69.45-71.14S387.47,91.1,348.91,91.1s-69.68,31.78-69.68,71.15S310.35,233.39,348.91,233.39Zm-185.82,0c38.56,0,69.45-31.77,69.45-71.14S201.65,91.1,163.09,91.1s-69.68,31.78-69.68,71.15S124.53,233.39,163.09,233.39Zm0,47.43C109,280.82.5,308.57.5,363.83v59.29H325.68V363.83C325.68,308.57,217.21,280.82,163.09,280.82Zm185.82,0c-6.74,0-14.4.48-22.53,1.19,26.94,19.92,45.76,46.72,45.76,81.82v59.29H511.5V363.83C511.5,308.57,403,280.82,348.91,280.82Z"/>
</svg>
