<svg id="Слой_1" data-name="Слой 1" xmlns="http://www.w3.org/2000/svg" viewBox="0 0 512 512">
  <defs>
    <style>
      .cls-1 {
        fill: #fff;
        fill-rule: evenodd;
      }
    </style>
  </defs>
  <title>remove_needless_select_letters_icon</title>
  <path class="cls-1" d="M72.49,74.16H206.72V53.58A13.21,13.21,0,0,1,219.89,40.4H294a13.2,13.2,0,0,1,13.18,13.18V74.16H439.77A8.25,8.25,0,0,1,448,82.4v40.35H64.26V82.39a8.25,8.25,0,0,1,8.23-8.23Zm22.23,70H420.4c6.79,0,13,5.61,12.34,12.35L405.18,458.74c-.61,6.75-5.57,12.34-12.35,12.34H121.9c-6.78,0-11.75-5.58-12.35-12.34L82.37,156.51c-.61-6.77,5.55-12.35,12.35-12.35ZM306.37,191.1H341V420H306.37V191.1Zm-136.71,0h34.58V420H169.66V191.1Zm68.35,0H272.6V420H238V191.1Z"/>
</svg>
