<svg id="Слой_1" data-name="Слой 1" xmlns="http://www.w3.org/2000/svg" viewBox="0 0 512 512">
  <defs>
    <style>
      .cls-1 {
        fill: #fff;
      }
    </style>
  </defs>
  <title>settings_icon</title>
  <path class="cls-1" d="M446.24,281.29a209.37,209.37,0,0,0,1.6-25,157,157,0,0,0-1.93-25L500.06,189a13.22,13.22,0,0,0,3.2-16.33L452,83.94a13,13,0,0,0-15.7-5.77L372.55,103.8a188.13,188.13,0,0,0-43.25-25l-9.62-67.92A12.79,12.79,0,0,0,306.87,0H204.35a12.48,12.48,0,0,0-12.5,10.89l-9.61,67.92a192.94,192.94,0,0,0-43.25,25L75.23,78.17a12.66,12.66,0,0,0-15.69,5.77L8.27,172.69c-3.2,5.76-1.92,12.49,3.21,16.33l54.14,42.29a151.17,151.17,0,0,0-.32,50L11.16,323.58A13.24,13.24,0,0,0,8,339.92l51.27,88.75a13,13,0,0,0,15.69,5.77l63.76-25.63a187.92,187.92,0,0,0,43.25,25l9.61,67.92c1.28,6.4,6.41,10.89,12.82,10.89H306.87a12.24,12.24,0,0,0,12.49-10.89L329,433.8a193.16,193.16,0,0,0,43.25-25L436,434.44a12.67,12.67,0,0,0,15.7-5.77l51.26-88.75a12.42,12.42,0,0,0-3.2-16.34ZM255.61,352.42c-52.86,0-96.12-43.25-96.12-96.12s43.26-96.11,96.12-96.11,96.11,43.25,96.11,96.11S308.47,352.42,255.61,352.42Z"/>
</svg>
