<svg id="Слой_1" data-name="Слой 1" xmlns="http://www.w3.org/2000/svg" viewBox="0 0 511 508">
  <defs>
    <style>
      .cls-1 {
        fill: #fff;
        fill-rule: evenodd;
      }
    </style>
  </defs>
  <title>skip_card_icon</title>
  <path class="cls-1" d="M452.58,253.73,248.49,410.8a4.3,4.3,0,0,1-6.93-3.4V279.75a4.3,4.3,0,0,0-6.92-3.41L60,410.8a4.3,4.3,0,0,1-6.92-3.4V95.65a4.29,4.29,0,0,1,6.89-3.42L234.67,224.66a4.3,4.3,0,0,0,6.89-3.43V95.65a4.3,4.3,0,0,1,6.9-3.42L452.55,246.9A4.3,4.3,0,0,1,452.58,253.73Z"/>
</svg>
