<svg xmlns="http://www.w3.org/2000/svg" viewBox="0 0 1024 1024">
  <defs>
    <style>
      .cls-1 {
        fill: #f7d08a;
      }

      .cls-2 {
        fill: #845e44;
      }

      .cls-3 {
        fill: #705038;
      }

      .cls-4 {
        fill: #d46d53;
      }

      .cls-5 {
        fill: #b55947;
      }

      .cls-6 {
        fill: #e2e2e2;
      }

      .cls-7 {
        fill: #fafafa;
      }

      .cls-8 {
        fill: #c9c9c9;
      }

      .cls-9 {
        fill: none;
      }
    </style>
  </defs>
  <title>ic_launcher</title>
  <g id="ic_launcher">
    <g>
      <path class="cls-1" d="M896,0H128A128,128,0,0,0,0,128V896c0,.77,0,1.54.06,2.31l544-314.1c12.48-8.37,31-3.4,39.37,11.09l-.19.11a30.29,30.29,0,0,1-11.08,41.37L15.27,956.67A128,128,0,0,0,128,1024H896a128,128,0,0,0,128-128V128A128,128,0,0,0,896,0Z"/>
      <path class="cls-2" d="M583.28,595.41h0l.19-.11c-8.36-14.49-26.89-19.46-39.37-11.09L.06,898.31a127.86,127.86,0,0,0,4.86,32.83Z"/>
      <path class="cls-3" d="M583.28,595.41,4.92,931.14a127.16,127.16,0,0,0,10.35,25.53L572.2,636.78A30.29,30.29,0,0,0,583.28,595.41Z"/>
      <polygon class="cls-3" points="4.92 931.14 4.92 931.14 583.28 595.41 583.28 595.4 4.92 931.14"/>
    </g>
    <path class="cls-4" d="M816.48,467.68C781.42,274.18,640.6,168.86,471.14,60c.94,96.18-23.19,196-96.32,267.86C282.46,413,173,502.67,265.18,659.69,413.69,903.67,886.26,763.1,816.48,467.68Zm-554.66,142c-7.94,6.88-10.59,9.45,2.06-2.73A15.61,15.61,0,0,1,261.82,609.65Z"/>
    <path class="cls-5" d="M714.17,455.36C691.45,330,600.22,261.78,490.44,191.25c.61,62.31-15,127-62.39,173.53C368.21,420,297.3,478,357,579.75,453.23,737.81,759.37,646.75,714.17,455.36Zm-359.33,92c-5.15,4.45-6.86,6.12,1.33-1.77A10.49,10.49,0,0,1,354.84,547.34Z"/>
    <g>
      <path class="cls-6" d="M813.65,462.64q-2.4-4.33-4.91-8.69C756.55,363.56,688.8,305,657.41,323.1L756.9,495.41Z"/>
      <rect class="cls-7" x="273.72" y="425.47" width="464.43" height="199.4" transform="translate(-194.8 323.33) rotate(-30)"/>
      <path class="cls-7" d="M255.2,555.32l-.33-.57C224.69,572.17,242.53,659.57,294.71,750q2.69,4.63,5.42,9.16l54.55-31.49Z"/>
    </g>
    <g>
      <path class="cls-8" d="M813.65,462.64q2.57,4.26,5.07,8.6c52.19,90.39,69,178.36,37.66,196.48L756.9,495.41Z"/>
      <rect class="cls-6" x="373.31" y="597.71" width="464.43" height="199.88" transform="translate(-267.7 396.23) rotate(-30)"/>
      <path class="cls-6" d="M454.17,899.94l.33.56c-30.19,17.43-97-41.72-149.14-132.11q-2.69-4.64-5.23-9.27l54.55-31.49Z"/>
    </g>
    <g>
      <path class="cls-2" d="M936.55,356.71,824.82,421.22l-57.34,33.1c-14.21,8.21-19,26.6-10.58,41.09l83.06-48,137.72-79.51A30.15,30.15,0,0,0,936.55,356.71Z"/>
      <path class="cls-3" d="M977.49,368.05,840,447.45,757.08,495.3l-.18.11c8.36,14.48,26.63,19.59,40.81,11.41l57.4-33.14,111.76-64.53a30.13,30.13,0,0,0,10.81-41.21Z"/>
    </g>
    <path class="cls-8" d="M702.33,526.91q2.4,4.35,4.91,8.7c52.19,90.39,119,149.53,149.14,132.11L756.9,495.41Z"/>
    <path class="cls-6" d="M702.33,526.91q-2.57-4.24-5.08-8.6c-52.18-90.39-70-177.79-39.84-195.21L756.9,495.41Z"/>
    <path class="cls-2" d="M621.23,594.82c-1.27-3.27-2.11-5.65-2.54-7.14q-3.56-12.57-1.42-23.26a134.09,134.09,0,0,1,7.67-24.9,109,109,0,0,0,5.54-16.9,25.81,25.81,0,0,0-.27-12.79q-2.52-8.94-8.78-12.77-6.09-4.19-14-2.21a21.43,21.43,0,0,0-11,6.61,49.19,49.19,0,0,0-8.09,12.45l-23.57-14.8A67.24,67.24,0,0,1,579.82,476a48.76,48.76,0,0,1,23-12.84q20.28-5,36,4T661,499.23a44.67,44.67,0,0,1,1.27,20.91,141.92,141.92,0,0,1-7.41,23,129.81,129.81,0,0,0-7.09,21.48,38.82,38.82,0,0,0,1,18.89,27.64,27.64,0,0,0,1.43,4.12Zm33.32,62.9q-8.7,2.14-16.47-3.4t-10.77-16.17q-3-10.62.81-19a17.85,17.85,0,0,1,12.5-10.55,19.25,19.25,0,0,1,16.46,3.4q7.77,5.56,10.78,16.17t-.81,19A17.82,17.82,0,0,1,654.55,657.72Z"/>
    <path class="cls-2" d="M561.21,649.67,577.13,640l-11.84-21.68-17.95,11L528,601l16.68-10.18-12.75-23.35-19.09,11.65-28.35-40.52-16.76,10.23,27.92,40.78-22.91,14L444.6,563l-16.76,10.23L455.76,614,439,624.2l12.75,23.36,19-11.61,19.35,28.22L472.37,675l11.84,21.69,19.94-12.18,31.29,45.4,17.18-10.49L521.33,674l22.91-14,31.29,45.4,17-10.36Zm-53.36,3.67-19.64-28,23.32-14.24,19.63,28.05Z"/>
    <path class="cls-2" d="M362,651l-23.25-27.44L315.18,650l24.8,25.7,63.68,63.63,15.51-17.37Zm94.59,130a22.21,22.21,0,0,0,5.59-16.87,29.06,29.06,0,0,0-7.83-18q-7.22-8-16.1-8.7a17.59,17.59,0,0,0-15.09,6.29,22.26,22.26,0,0,0-5.6,16.87,29,29,0,0,0,7.84,18q7.21,8,16.1,8.7A17.58,17.58,0,0,0,456.63,781Z"/>
    <g>
      <path class="cls-9" d="M456.63,781a17.58,17.58,0,0,1-15.09,6.29q-8.88-.66-16.1-8.7a29.08,29.08,0,0,1-7.84-18,22.26,22.26,0,0,1,5.6-16.87,17.59,17.59,0,0,1,15.09-6.29q8.88.66,16.1,8.7a29.06,29.06,0,0,1,7.83,18A22.21,22.21,0,0,1,456.63,781Zm210.42-133.8a17.86,17.86,0,0,1-12.51,10.55,19.25,19.25,0,0,1-16.46-3.4q-7.77-5.57-10.77-16.17t.81-19a17.85,17.85,0,0,1,12.5-10.55,19.25,19.25,0,0,1,16.46,3.4q7.77,5.56,10.78,16.17T667.05,647.17Z"/>
      <polygon class="cls-9" points="531.16 639.11 524.5 629.58 500.79 643.27 507.85 653.34 531.16 639.11"/>
      <path class="cls-3" d="M657.08,612a19.25,19.25,0,0,0-16.46-3.4,17.85,17.85,0,0,0-12.5,10.55q-3.82,8.42-.81,19t10.77,16.17a19.25,19.25,0,0,0,16.46,3.4,17.86,17.86,0,0,0,12.51-10.55q3.81-8.42.81-19T657.08,612Z"/>
      <path class="cls-3" d="M621.23,594.82l29-7.15a27.44,27.44,0,0,1-1.43-4.13,38.77,38.77,0,0,1-1-18.88q.74-3.42,2-7.4l-33.14,19.13a58,58,0,0,0,2.06,11.29C619.12,589.17,620,591.55,621.23,594.82Z"/>
      <polygon class="cls-3" points="472.37 675 484.21 696.69 504.15 684.51 535.44 729.91 552.62 719.42 521.33 674.02 544.24 660.03 575.53 705.43 592.51 695.07 561.22 649.67 577.13 639.96 565.28 618.27 547.34 629.23 541.03 620.04 524.5 629.58 531.16 639.11 507.85 653.34 500.79 643.27 482.87 653.62 490.11 664.17 472.37 675"/>
      <path class="cls-3" d="M454.39,746.14q-7.22-8-16.1-8.7a17.59,17.59,0,0,0-15.09,6.29,22.26,22.26,0,0,0-5.6,16.87,29.08,29.08,0,0,0,7.84,18q7.21,8,16.1,8.7A17.58,17.58,0,0,0,456.63,781a22.21,22.21,0,0,0,5.59-16.87A29.06,29.06,0,0,0,454.39,746.14Z"/>
      <polygon class="cls-3" points="419.17 721.92 401.85 700.4 378.33 713.98 403.66 739.29 419.17 721.92"/>
    </g>
  </g>
</svg>
