<svg id="Слой_1" data-name="Слой 1" xmlns="http://www.w3.org/2000/svg" viewBox="0 0 348 148">
  <defs>
    <style>
      .cls-1 {
        fill: none;
      }

      .cls-2 {
        fill: #e76f51;
      }

      .cls-3 {
        fill: #264653;
      }
    </style>
  </defs>
  <title>card_image</title>
  <g id="CardImage">
    <rect class="cls-1" width="348" height="148"/>
    <rect class="cls-2" width="348" height="148"/>
    <path class="cls-3" d="M257.4,90.8a39.91,39.91,0,0,1,.72-3.93,23.69,23.69,0,0,1,6-10.93,72.34,72.34,0,0,1,11.27-9.15,59.05,59.05,0,0,0,7.83-6.12,12.48,12.48,0,0,0,3.56-5.86,10,10,0,0,0-1-8.21A10.62,10.62,0,0,0,279,41.71a14.85,14.85,0,0,0-7.77-.06,30,30,0,0,0-7.89,3.41l-8.2-13.22a40.59,40.59,0,0,1,14.72-6.3,33.44,33.44,0,0,1,15.89.54q12.18,3.33,17.92,11.74t2.5,20.71a21.38,21.38,0,0,1-5.37,9.81,77.78,77.78,0,0,1-10.6,8.39,69.79,69.79,0,0,0-10,7.76,18.59,18.59,0,0,0-5,8.81,12.75,12.75,0,0,0-.44,2.27Zm-.55,37.68a12,12,0,0,1-7.73-6.09,13.67,13.67,0,0,1-1-10.3A13.41,13.41,0,0,1,254,103.7a11.79,11.79,0,0,1,9.68-1.32,12,12,0,0,1,7.74,6.09,13.67,13.67,0,0,1,1,10.3,13.41,13.41,0,0,1-5.94,8.39A11.79,11.79,0,0,1,256.85,128.48Z"/>
    <path class="cls-3" d="M190.15,97.66h11.27V84.57H188.71l-2.1-18.12h11.82V52.35H184.91L181.6,26.18H169.73l3,26.17H156.51l-3.16-26.17H141.48l3,26.17H132.62v14.1h13.46l2.09,18.12H135.61V97.66h14.12l3.46,29.2h12.17l-3.46-29.2h16.23l3.46,29.2h12ZM160.74,84.57l-2.3-18.12H175l2.29,18.12Z"/>
    <path class="cls-3" d="M77.38,44.57,73.06,25.73,53.17,31.17,58.8,49.66l15.12,46.4L87,92.49Zm12.33,85a12,12,0,0,0,7.74-6.09,13.67,13.67,0,0,0,1-10.3,13.45,13.45,0,0,0-5.94-8.39,11.8,11.8,0,0,0-9.68-1.32,12,12,0,0,0-7.74,6.09,13.67,13.67,0,0,0-1,10.3A13.37,13.37,0,0,0,80,128.25,11.8,11.8,0,0,0,89.71,129.57Z"/>
  </g>
</svg>
