<svg id="Слой_1" data-name="Слой 1" xmlns="http://www.w3.org/2000/svg" xmlns:xlink="http://www.w3.org/1999/xlink" viewBox="0 0 390.5 390.5">
  <defs>
    <style>
      .cls-1, .cls-4, .cls-8 {
        fill: none;
      }

      .cls-2 {
        clip-path: url(#clip-path);
      }

      .cls-3 {
        fill: #e1a165;
      }

      .cls-4, .cls-8 {
        stroke: #222220;
        stroke-miterlimit: 10;
      }

      .cls-4 {
        stroke-width: 3px;
      }

      .cls-5 {
        fill: #5e9b8e;
      }

      .cls-6 {
        fill: #dec36e;
      }

      .cls-7 {
        font-size: 75.54px;
        fill: #222220;
        font-family: MyriadPro-Regular, Myriad Pro;
      }

      .cls-8 {
        stroke-width: 2px;
      }

      .cls-9 {
        fill: #cd6e53;
      }

      .cls-10 {
        fill: #354853;
      }
    </style>
    <clipPath id="clip-path">
      <rect class="cls-1" width="390.5" height="390.5"/>
    </clipPath>
  </defs>
  <title>ic_launcher</title>
  <g class="cls-2">
    <path class="cls-3" d="M327,2.79H61.5a60,60,0,0,0-60,60v265.5a60,60,0,0,0,60,60H327a60,60,0,0,0,60-60V62.79a60,60,0,0,0-60-60"/>
    <rect class="cls-4" x="2.5" y="2.79" width="385.5" height="385.5" rx="60"/>
    <path class="cls-5" d="M229.72,313.06H158.38a35,35,0,0,0-35,35v40.23H260.72a4,4,0,0,0,4-4V348.06a35,35,0,0,0-35-35"/>
    <path class="cls-4" d="M229.72,313.06H158.38a35,35,0,0,0-35,35v40.23H260.72a4,4,0,0,0,4-4V348.06A35,35,0,0,0,229.72,313.06Z"/>
    <path class="cls-6" d="M166.35,313.06c0-39-11.71-41.38-11.71-41.38H137.46a24.61,24.61,0,0,1-6.05-7.22,20.45,20.45,0,0,1-2.54-7,19.69,19.69,0,0,1,2.28-12,17.61,17.61,0,0,0,6.53-1.44c2-.85,7-2.45,7.2-6.24.39-6.25,0-6.77,0-6.77-1.15-2.77-3.07-5.95-6.38-7.28-4.07-1.64-7.54.61-9.63-1.56-1.08-1.14-.94-2.59-.78-7.42.1-2.82.2-6.51.23-10.86q-7.59,1.15-10.12-1.89-6.86-8.3,24-47.76h7s9.11,1.7,8.85-8.71,0-14.58,0-14.58,1.3-6.24-5.2-6.24h-8.07v-25a31.2,31.2,0,0,1,5.46-7c7-6.76,15.44-8.12,25.77-9.63,24.2-3.55,36.3-5.32,42.68-4.94,16.45,1,24.68,1.45,31.22,6.76,10,8.08,12.63,22.09,17.44,47.36.84,4.42,1.22,7.46,2.86,15.62,1.69,8.36,2.64,11.92,3.13,17.69a87.58,87.58,0,0,1,0,12.76,141.4,141.4,0,0,1-2.09,18c-4.53,25.59-6.8,38.39-8.84,42.68-5.16,10.84-9.87,20.74-19.91,24.59-6.32,2.43-13.95,2.16-18.74,8.59a27.76,27.76,0,0,0-3.51,7c-1.52,4.29-1.69,7.77-1.87,12-.24,5.84.39,7.32.23,14.32-.08,3.21-.28,5.85-.44,7.61"/>
    <path class="cls-4" d="M166.35,313.06c0-39-11.71-41.38-11.71-41.38H137.46a24.61,24.61,0,0,1-6.05-7.22,20.45,20.45,0,0,1-2.54-7,19.69,19.69,0,0,1,2.28-12,17.61,17.61,0,0,0,6.53-1.44c2-.85,7-2.45,7.2-6.24.39-6.25,0-6.77,0-6.77-1.15-2.77-3.07-5.95-6.38-7.28-4.07-1.64-7.54.61-9.63-1.56-1.08-1.14-.94-2.59-.78-7.42.1-2.82.2-6.51.23-10.86q-7.59,1.15-10.12-1.89-6.86-8.3,24-47.76h7s9.11,1.7,8.85-8.71,0-14.58,0-14.58,1.3-6.24-5.2-6.24h-8.07v-25a31.2,31.2,0,0,1,5.46-7c7-6.76,15.44-8.12,25.77-9.63,24.2-3.55,36.3-5.32,42.68-4.94,16.45,1,24.68,1.45,31.22,6.76,10,8.08,12.63,22.09,17.44,47.36.84,4.42,1.22,7.46,2.86,15.62,1.69,8.36,2.64,11.92,3.13,17.69a87.58,87.58,0,0,1,0,12.76,141.4,141.4,0,0,1-2.09,18c-4.53,25.59-6.8,38.39-8.84,42.68-5.16,10.84-9.87,20.74-19.91,24.59-6.32,2.43-13.95,2.16-18.74,8.59a27.76,27.76,0,0,0-3.51,7c-1.52,4.29-1.69,7.77-1.87,12-.24,5.84.39,7.32.23,14.32-.08,3.21-.28,5.85-.44,7.61"/>
    <line class="cls-4" x1="166.35" y1="313.06" x2="218.14" y2="313.06"/>
    <line class="cls-4" x1="163.49" y1="129.85" x2="254.05" y2="129.85"/>
  </g>
  <text class="cls-7" transform="translate(42.1 205.99)">!</text>
  <g class="cls-2">
    <path class="cls-8" d="M50.78,206.82a4.39,4.39,0,0,0,4.46-4.69,4.34,4.34,0,0,0-4.46-4.68,4.69,4.69,0,0,0,0,9.37Zm2.57-15.49,1.06-36.26H47.16l1.06,36.26Z"/>
  </g>
  <text class="cls-7" transform="translate(67.81 234.28)">#</text>
  <g class="cls-2">
    <path class="cls-8" d="M79.37,234.28l2-14.81h7.86l-2,14.81h4.54l2-14.81h7.18V215H94.4l1.36-10.95h6.87v-4.45H96.44l1.89-14.43H93.87l-2,14.43H84.05l1.89-14.43H81.56l-2,14.43H72.42v4.45h6.49L77.48,215H70.6v4.46h6.2l-2,14.81ZM82,215l1.44-10.95H91.3L89.87,215Z"/>
  </g>
  <text class="cls-7" transform="translate(32.92 273.62)">?</text>
  <g class="cls-2">
    <path class="cls-8" d="M46.36,274.45a4.73,4.73,0,0,0,.08-9.44,4.47,4.47,0,0,0-4.53,4.76A4.42,4.42,0,0,0,46.36,274.45Zm3.1-15.25-.07-2c-.23-3.85,1-7.18,4.3-11.1,3.63-4.31,6.5-8,6.5-13.15,0-5.74-3.93-11.1-12.62-11.1-4,0-8.31,1.21-10.8,3l1.81,4.76a13.39,13.39,0,0,1,7.63-2.34c4.76.07,7.18,2.64,7.18,6.49,0,3.4-1.89,6.35-5.29,10.35-3.78,4.54-5.13,9-4.68,13.07l.15,2Z"/>
    <path class="cls-9" d="M167.36,101.23C151,98.88,145.5,102,135.88,98.1s-12.5-20-12.5-26.8,12-26,19.26-30.45c2.7-1.64,3.76-2.46,5.23-3.25A76.49,76.49,0,0,1,157,33.42a94.11,94.11,0,0,1,11.92-3.5c25.54-5.49,50.36-3.65,50.36-3.65,23.77,1.8,35.65,2.7,48.8,10.54C288.33,48.88,304,72.86,304,72.86a254.83,254.83,0,0,1,6.5,29.67c1.22,7.73,4.72,29.38,0,54.13-1.26,6.65-2.58,12.3-7.28,16.91-6.26,6.14-14.67,6.93-18.48,7l-12.23,2.34a15.21,15.21,0,0,1-10.15-1.56c-6.2-3.64-9.15-12.57-6.51-21.86l1.57-15.09,2.34-25s-1.3-11-5.73-13.79-19-2.08-24.72,2.86-5,5-5.46,9.89-1.57,18.22-1.57,18.22-.85,19.66-2.08,23.42-1,8.85-4.42,13.53a11,11,0,0,1-3.18,2.9,11.52,11.52,0,0,1-6.45,2.05,12,12,0,0,1-7.2-2.88,11.76,11.76,0,0,1-3.21-3.37c-3.12-5.2-2.08-16.13-2.08-16.13l.78-26.29s-.78-16.39-.78-19.52-9.89-6.76-26.29-9.1"/>
    <path class="cls-4" d="M167.36,101.23C151,98.88,145.5,102,135.88,98.1s-12.5-20-12.5-26.8,12-26,19.26-30.45c2.7-1.64,3.76-2.46,5.23-3.25A76.49,76.49,0,0,1,157,33.42a94.11,94.11,0,0,1,11.92-3.5c25.54-5.49,50.36-3.65,50.36-3.65,23.77,1.8,35.65,2.7,48.8,10.54C288.33,48.88,304,72.86,304,72.86a254.83,254.83,0,0,1,6.5,29.67c1.22,7.73,4.72,29.38,0,54.13-1.26,6.65-2.58,12.3-7.28,16.91-6.26,6.14-14.67,6.93-18.48,7l-12.23,2.34a15.21,15.21,0,0,1-10.15-1.56c-6.2-3.64-9.15-12.57-6.51-21.86l1.57-15.09,2.34-25s-1.3-11-5.73-13.79-19-2.08-24.72,2.86-5,5-5.46,9.89-1.57,18.22-1.57,18.22-.85,19.66-2.08,23.42-1,8.85-4.42,13.53a11,11,0,0,1-3.18,2.9,11.52,11.52,0,0,1-6.45,2.05,12,12,0,0,1-7.2-2.88,11.76,11.76,0,0,1-3.21-3.37c-3.12-5.2-2.08-16.13-2.08-16.13l.78-26.29s-.78-16.39-.78-19.52S183.76,103.57,167.36,101.23Z"/>
    <path class="cls-4" d="M231.15,119.05c1.36-8.39,12.1-5.07,12.1-5.07a17.9,17.9,0,0,1,3.22,1.29,10.82,10.82,0,0,1,3.22,3.78c1.61,3.1,1.15,11.57-2.34,22.06a131.39,131.39,0,0,1-8.4,21.66c-2,4-4,7.63-6,10.93"/>
    <path class="cls-10" d="M164.57,160.82H130.39a1,1,0,0,1-1-1V116a1,1,0,0,1,1-1h34.18a1,1,0,0,1,1,1v43.8a1,1,0,0,1-1,1"/>
    <rect class="cls-4" x="129.39" y="115.02" width="36.17" height="45.8" rx="1"/>
    <line class="cls-8" x1="136.62" y1="132.94" x2="147.48" y2="122.08"/>
    <line class="cls-8" x1="148.67" y1="154.38" x2="159.53" y2="143.52"/>
    <line class="cls-8" x1="140.09" y1="145.31" x2="154.87" y2="130.53"/>
  </g>
</svg>
